<svg style="height: 512px; width: 512px;" xmlns="http://www.w3.org/2000/svg" viewBox="0 0 512 512"><g class="" style="" transform="translate(1,0)"><path d="M74.5 36A38.5 38.5 0 0 0 36 74.5v363A38.5 38.5 0 0 0 74.5 476h363a38.5 38.5 0 0 0 38.5-38.5v-363A38.5 38.5 0 0 0 437.5 36h-363zM256 206a50 50 0 0 1 0 100 50 50 0 0 1 0-100z" fill="#1d3557" fill-opacity="1"></path></g><g class="" style="" transform="translate(173,160)"><g transform="translate(12.8, 12.8) scale(0.6, 0.6) rotate(0, 128, 128)"><circle cx="128" cy="128" r="128" fill="#c1121f" fill-opacity="1"></circle><circle stroke="#fff" stroke-opacity="1" fill="#c1121f" fill-opacity="1" stroke-width="18" cx="128" cy="128" r="101"></circle><path fill="#fff" fill-opacity="1" d="M103 63.52c-11.5 0-23 5-23 15 0 19.97 46 19.97 46 0 0-10-11.5-15-23-15zm50 35.78c-11.5 0-23 5-23 15 0 20 46 20 46 0 0-10-11.5-15-23-15zm-73 7.1v5.1c0 12.7 18.47 17.3 32 13.9v-11.1c0-1.2.1-2.4.2-3.6-10.9 1.8-22.76.4-32.2-4.3zm0 33v5.1c0 12.7 18.47 17.3 32 13.9v-14.6c-10.9 1.7-22.61.3-32-4.4zm50 2.8v5.1c0 20 46 20 46 0v-5.1c-13.7 6.8-32.3 6.8-46 0zm-50 30.2v2.1c0 13.3 20.2 17.7 33.8 13.4-1.2-3.2-1.8-6.7-1.8-10.6v-.5c-10.9 1.7-22.61.3-32-4.4zm50 2.8v2.1c0 20 46 20 46 0v-2.1c-13.7 6.8-32.3 6.8-46 0z"></path></g></g></svg>