<svg style="height: 512px; width: 512px;"
    xmlns="http://www.w3.org/2000/svg" viewBox="0 0 512 512">
    <g class="" style="" transform="translate(1,0)">
        <path d="M74.5 36A38.5 38.5 0 0 0 36 74.5v363A38.5 38.5 0 0 0 74.5 476h363a38.5 38.5 0 0 0 38.5-38.5v-363A38.5 38.5 0 0 0 437.5 36h-363zM256 206a50 50 0 0 1 0 100 50 50 0 0 1 0-100z" fill="#1d3557" fill-opacity="1"></path>
    </g>
    <g class="" style="" transform="translate(173,160)">
        <g transform="translate(12.8, 12.8) scale(0.6, 0.6) rotate(0, 128, 128)">
            <circle cx="128" cy="128" r="128" fill="#c1121f" fill-opacity="1"></circle>
            <circle stroke="#fff" stroke-opacity="1" fill="#c1121f" fill-opacity="1" stroke-width="18" cx="128" cy="128" r="101"></circle>
            <path fill="#fff" fill-opacity="1" d="M99.016 83.18c0 27.973 28.984 32.635 28.984 55.946 0 9.325-9.661 23.312-24.153 23.312-14.492 0-24.153-13.987-14.492-37.298-14.491 9.324-19.322 18.649-19.322 27.973 0 23.312 24.153 46.623 57.967 46.623 33.813 0 57.966-13.987 57.966-41.96.216-41.378-49.4-55.2-62.797-74.597-9.66-13.987-4.83-23.311 4.83-32.636-19.321 4.663-28.983 17.717-28.983 32.636z"></path>
        </g>
    </g>
</svg>