<svg style="height: 512px; width: 512px;"
    xmlns="http://www.w3.org/2000/svg" viewBox="0 0 512 512">
    <g class="" style="" transform="translate(1,0)">
        <path d="M74.5 36A38.5 38.5 0 0 0 36 74.5v363A38.5 38.5 0 0 0 74.5 476h363a38.5 38.5 0 0 0 38.5-38.5v-363A38.5 38.5 0 0 0 437.5 36h-363zm48.97 36.03A50 50 0 0 1 172 122a50 50 0 0 1-100 0 50 50 0 0 1 51.47-49.97zm268 0A50 50 0 0 1 440 122a50 50 0 0 1-100 0 50 50 0 0 1 51.47-49.97zm-268 268A50 50 0 0 1 172 390a50 50 0 0 1-100 0 50 50 0 0 1 51.47-49.97zm268 0A50 50 0 0 1 440 390a50 50 0 0 1-100 0 50 50 0 0 1 51.47-49.97z" fill="#1d3557" fill-opacity="1"></path>
    </g>
    <g class="" style="" transform="translate(301,32)">
        <g transform="translate(12.8, 12.8) scale(0.6, 0.6) rotate(0, 128, 128)">
            <circle cx="128" cy="128" r="128" fill="#c1121f" fill-opacity="1"></circle>
            <circle stroke="#fff" stroke-opacity="1" fill="#c1121f" fill-opacity="1" stroke-width="18" cx="128" cy="128" r="101"></circle>
            <path fill="#fff" fill-opacity="1" d="M128 58c-32 0-64 16-64 37.838C64 154 96 142 96 142l-6 24h76l-6-24s32 12 32-52c0-16-32-32-64-32zm-26 38a16 16 0 0 1 16 16 16 16 0 0 1-16 16 16 16 0 0 1-16-16 16 16 0 0 1 16-16zm52 0a16 16 0 0 1 16 16 16 16 0 0 1-16 16 16 16 0 0 1-16-16 16 16 0 0 1 16-16zm-26 34l10 26h-20l10-26zm-28 51.002v17.996h56v-17.996h-56z"></path>
        </g>
    </g>
</svg>