<svg style="height: 512px; width: 512px;"
    xmlns="http://www.w3.org/2000/svg" viewBox="0 0 512 512">
    <g class="" style="" transform="translate(1,0)">
        <path d="M74.5 36A38.5 38.5 0 0 0 36 74.5v363A38.5 38.5 0 0 0 74.5 476h363a38.5 38.5 0 0 0 38.5-38.5v-363A38.5 38.5 0 0 0 437.5 36h-363zm48.97 36.03A50 50 0 0 1 172 122a50 50 0 0 1-100 0 50 50 0 0 1 51.47-49.97zm268 0A50 50 0 0 1 440 122a50 50 0 0 1-100 0 50 50 0 0 1 51.47-49.97zm-268 268A50 50 0 0 1 172 390a50 50 0 0 1-100 0 50 50 0 0 1 51.47-49.97zm268 0A50 50 0 0 1 440 390a50 50 0 0 1-100 0 50 50 0 0 1 51.47-49.97z" fill="#1d3557" fill-opacity="1"></path>
    </g>
    <g class="" style="" transform="translate(298,37)">
        <g transform="translate(12.8, 12.8) scale(0.6, 0.6) rotate(0, 128, 128)">
            <circle cx="128" cy="128" r="128" fill="#c1121f" fill-opacity="1"></circle>
            <circle stroke="#fff" stroke-opacity="1" fill="#c1121f" fill-opacity="1" stroke-width="18" cx="128" cy="128" r="101"></circle>
            <path fill="#fff" fill-opacity="1" d="M128 204c16-24 68-78 68-94 0-24-20-39.824-36-40-16 0-32 10-32 30 0-20-16-30-32-30-16-.176-36 16-36 40 0 16 52 70 68 94z"></path>
        </g>
    </g>
</svg>