<?xml version="1.0" encoding="utf-8"?>

<!DOCTYPE svg PUBLIC "-//W3C//DTD SVG 1.1//EN" "http://www.w3.org/Graphics/SVG/1.1/DTD/svg11.dtd">
<svg  version="1.1" id="Layer_1" xmlns="http://www.w3.org/2000/svg" xmlns:xlink="http://www.w3.org/1999/xlink" x="0px" y="0px"
	 viewBox="0 0 1872.825 1668.816" enable-background="new 0 0 1872.825 1668.816" xml:space="preserve">
<path fill="#1d3557" fillOpacity="1" d="M1115.722,34.408c36.565,6.835,67.963,28.645,77.975,66.626c3.856,21.401-1.872,26.645-5.338,35.878
	c0.766,5.338,1.532,10.698,3.224,15.837c40.771-2.979,111.419,71.508,237.855,116.442c93.33,33.347,121.567,28.601,121.336,44.142
	c2.075,1.838,4.648,1.233,7.099,0.689c22.274,3.059,179.584,290.824,190.045,309.864c4.901,8.684,9.09,17.943,10.576,27.883
	c1.47,26.778,9.862,50.201,10.691,89.593c0.494,8.307-0.845,47.783-8.01,56.326c-1.241,1.072-3.017,0.95-4.503,1.248
	c1.976-5.53,1.229-6.744,1.271-36.338c-72.272-27.764-49.141-23.172-108.179-24.161c-7.375-0.521-14.803,0.352-22.148-0.659
	c-7.346-0.953-16.432-4.996-35.358-7.612c-7.597,2.274-15.094,4.955-22.507,7.788c-11.479,29.683-8.898,18.819-9.756,37.808
	c-0.237,10.254,1.968,20.455,0.85,30.709c0.351,7.467,7.98,21.905,4.235,32.379c-2.535-10.997-5.231-21.987-8.256-32.869
	c-10.285-5.047-17.3-14.474-24.805-22.775c-3.393-4.258-7.773-7.536-11.526-11.434c-3.4-3.775-8.424-5.33-12.46-8.256
	c-22.529-13.655-16.089-16.25-44.348-22.982c-20.141,16.473-16.628,10.357-21.742,58.991c1.099,20.796,7.409,61.156,7.099,81.958
	c-0.347,7.01,5.422,27.463,5.131,39.095c0.053,2.343-1.042,4.488-2.374,6.349c0.062-7.641-4.813-34.893-6.349-42.082
	c-2.048-4.54-35.498-69.08-50.72-88.367c-37.416-44.973-28.699-36.101-63.716-67.17c-5.1,0.957-10.239,1.669-15.316,2.696
	c1.34,9.243,3.523,18.387,3.929,27.745c0.049,1-1.828,96.47-11.526,117.246c-1.064,0.038-2.106,0.077-3.132,0.115
	c2.336-9.741,2.037-19.881,3.086-29.806c-27.15-35.083-1.349-9.219-58.432-35.542c-3.132,1.348-6.494,2.198-9.481,3.86
	c18.457,98.981,13.567,46.127,19.49,112.521c0.605,7.681,3.684,15.117,2.948,22.913c-5.139-4.878-6.356-12.322-7.627-18.969
	c-6.721-30.813,10.04,4.354-24.177-79.66c-1.327,23.189,2.462,34.58-1.891,44.149c-4.152-14.538,0.402-23.125-7.842-48.698
	c-2.029-6.709-2.742-13.708-3.27-20.662c-17.666-34.212-17.974-30.423-29.116-43.552c-16.472,32.978-11.699,57.171-25.479,70.892
	c13.506,29.25,18.426,41.109,18.426,41.109c-3.701-2.147-26.031-37.37-26.788-38.597c-26.255-1.521-45.065-28.384-91.469-34.554
	c-20.441,37.787-19.936,54.872-32.271,60.461c0,0,6.759,24.055,8.531,37.877c-1.072-1.493-2.06-3.063-2.581-4.825
	c-2.964-10.767-8.179-20.708-11.878-31.215c-11.917-2.945-42.454-30.989-53.117-33.259c-31.158-7.398-38.782-11.645-74.92-11.181
	c-107.991,46.714-57.507,28.931-142.174,74.56c-3.575,1.267-31.232,6.469-34.891,7.467c-28.634,6.356-18.91,3.255-37.142,14.007
	c3.193,4.641,6.563,9.174,9.994,13.655c4.794-2.925,7.934-8.547,13.831-9.488c-1.179,5.59-1.578,11.296-2.466,16.932
	c6.165-3.301,13.884-1.884,19.636-6.111c4.212-2.964,7.628-6.9,11.832-9.879c2.887-2.045,5.368-5.139,9.175-5.345
	c-0.373,10.029-19.135,39.126-26.582,49.173c0.628,0.919,1.271,1.853,1.915,2.803c7.335-4.699,34.23-16.693,35.963-16.733
	c-0.745,7.521-15.881,26.448-22.17,36.445c2.366,3.454,4.733,6.908,7.275,10.247c4.056-3.962,44.502-44.059,49.908-44.854
	c0.836,8.239-22.63,53.073-29.247,66.58c2.059-1.61,11.835-8.973,14.872-9.55c-1.333,5.445-3.04,10.806-4.848,16.12
	c7.076-6.229,29.545-21.24,34.722-22.27c-0.625,6.081-13.573,30.429-22.936,41.936c2.573,2.144,5.215,4.204,7.941,6.172
	c7.567-6.514,14.347-15.323,20.195-17.974c-0.674,6.28-1.011,12.59-1.455,18.908c12.346-14.07,40.347-37.383,45.191-38.061
	c-0.188,10.237-17.509,45.762-22.033,54.932c1.853,0.322,4.166,2.083,5.828,0.398c5.659-4.582,21.296-15.604,24.024-16.825
	c-1.884,8.424-8.723,14.382-12.651,21.803c3.99,1.103,7.85,2.627,11.763,3.99c3.877-7.245,18.46-16.676,20.922-17.292
	c0.766,8.087,0.513,16.381-1.409,24.315c1.279,0.559,2.573,1.133,3.875,1.715c4.726-14.259,21.331-43.443,30.939-45.597
	c0.554,3.903-2.163,36.133-5.039,55.108c9.851-13.169,12.63-17.775,17.261-20.792c1.47,5.437,1.792,11.127,2.336,16.725
	c0.574,3.776-0.85,7.405-2.006,10.928c4.235,2.198,8.432,4.472,12.513,6.961c1.53-1.812,22.465-27.117,28.756-30.158
	c1.804,5.79-7.302,29.354-10.3,38.375c10.777-6.791,9.466-7.204,13.823-8.638c1.012,5.352-4.993,15.469-5.56,18.38
	c3.163,2.627,6.624,4.871,9.818,7.482c4.367-5.148,28.717-32.974,35.35-34.37c0.312,8.433-12.426,39.176-18.403,48.591
	c2.435,2.359,4.978,4.61,7.344,7.045c4.22-3.002,8.148-6.609,13.042-8.5c-1.363,5.162-4.595,9.542-7.352,14.03
	c0.766,0.659,1.555,1.355,2.351,2.045c4.275-2.771,22.748-13.762,25.931-14.405c-1.719,6.126-11.029,16.839-16.572,23.656
	c6.578,6.647,13.18,13.279,19.697,19.995c11.122-11.999,14.273-15.958,18.977-17.89c-2.627,9.144-5.927,18.257-10.66,26.566
	c0.865,0.827,1.746,1.67,2.635,2.527c6.892-7.312,21.58-17.359,23.848-18.027c-0.405,4.841-5.933,22.595-11.411,30.939
	c15.992,17.004,12.225,12.654,25.41,23.419c4.016-3.284,26.388-20.993,31.475-21.864c-0.635,8.029-11.037,24.223-16.044,33.91
	c2.619,2.091,5.315,4.089,8.026,6.096c2.788-1.731,5.614-3.446,8.692-4.633c-0.322,3.293-1.049,6.532-1.838,9.756
	c10.867,7.88,21.902,15.531,32.999,23.097c4.266-3.661,9.328-6.586,14.727-8.179c-0.766,5.261-1.378,10.706-3.806,15.516
	c3.852,2.535,7.689,5.116,11.541,7.673c5.206-5.568,16.343-11.206,20.463-12.575c0.113,2.971-1.126,15.34-5.016,22.637
	c10.821,7.007,21.741,13.854,32.785,20.501c3.01-2.719,5.828-5.797,9.511-7.612c-0.352,3.967-1.7,7.735-3.01,11.472
	c9.167,5.353,18.341,10.691,27.5,16.052c3.768-4.197,7.589-8.554,12.452-11.495c-0.398,5.644-2.167,11.089-3.913,16.442
	c165.602,97.198,253.852,118.072,368.044,132.616c7.758,0.797,15.592,1.792,23.396,0.881c26.374-2.507,28.938-3.764,31.927-8.187
	c4.507-6.275,21.953-24.444,41.905-59.221c22.792-41.516,51.591-81.279,81.705-131.054c3.593-5.694,6.047-15.221,17.844-12.69
	c2.902,0.934,4.158,4.25,4.151,7.084c-0.391,3.76-2.68,6.9-4.419,10.139c-67.178,127.66-96.029,223.82-119.659,229.484
	c-14.688,4.534-27.738,13.172-42.648,17.078c-20.62,5.462-85.342,3.848-105.905-2.466c-58.63,0-132.311,6.847-337.158-87.808
	c-10.755-5.169-122.337-55.789-194.816-106.87c-31.063-22.168-113.28-102.673-138.23-113.057
	c-27.902,24.048-62.112,37.827-99.526,32.555c-18.854-2.343-8.633,1.416-38.429-1.715c47.235,22.328,28.747,9.183,48.652,18.035
	c9.502,4.312,13.977,18.359,9.68,18.441c-5.641-0.686-5.706-8.491-26.421-7.643c-2.351,5.208-6.502,9.381-8.554,14.765
	c2.747,3.054,38.622,41.681,54.235,50.299c5.453,2.611,10.844,5.767,14.819,10.423c4.456,4.593,9.796,22.53,4.373,22.974
	c-4.472-1.294-6.739-5.836-10.392-8.378c-3.752-2.887-8.309-4.273-12.605-6.081c-4.703,7.445-14.857,33.633-22.301,46.133
	c-9.212,15.786-21.821,38.19-14.037,54.886c13.438,27.769,8.782,33.111,11.349,46.194c1.455,2.688,3.155,5.292,3.829,8.34
	c22.406,7.482,25.567,17.158,25.111,32.08c6.404,8.256,4.668,20.986,2.313,25.349c-0.957-0.337-1.899-0.651-2.834-0.95
	c-1.708-4.174-2.818-8.654-5.843-12.146c-6.854,3.73-15.309,4.044-22.538,1.21c-8.049-3.347-16.58-5.345-24.659-8.623
	c-11.435,6.116-26.186,21.297-32.333,22.446c-7.26,1.761-15.14-0.521-22.101,2.696c-5.082,2.354-21.496,8.457-28.917,5.146
	c-1.899-1.325-2.65-3.699-3.821-5.583c-2.834,2.558-3.975,6.303-6.195,9.312c-0.689,1.179-2.259,0.804-3.362,1.164
	c-0.712-2.971-0.46-6.035-0.077-9.014c-7.245,4.436-22.63,15.802-33.007,10.017c-2.06-1.371-1.348-4.166-1.815-6.219
	c-8.679,3.408-9.491,14.038-15.569,12.935c-0.222-4.917,1.501-9.573,2.994-14.152c-13.224,3.012-11.658-0.585-12.72-4.097
	c-1.346,0.234-9.022,0.361-14.214,8.983c-1.248,1.823-2.795,4.189-5.345,3.921c-0.699-3.898,1.091-21.707,20.057-29.285
	c1.256-3.5,4.059-6.065,6.885-8.317c18.417-14.565,28.623-13.099,36.024-15.255c4.449-1.149,5.682-6.142,8.386-9.266
	c6.684-7.504,5.103-9.729,23.135-7.068c1.547-2.788,1.922-6.157,3.998-8.654c3.002-3.722,7.321-6.678,8.462-11.594
	c-12.46,5.33-26.168,6.088-39.217,9.19c-41.796,11.804-26.826,4.916-61.418,6.777c-7.16,0.72-14.252,2.673-21.473,2.466
	c-0.942-1.654-1.585-3.438-1.999-5.269c-2.835-0.495-9.867-1.026-14.244,1.93c-4.097,0.467-6.05,4.794-9.933,5.728
	c1.914-10.16,13.498-17.365,14.895-19.276c3.247-4.58,8.141-7.697,13.226-9.879c2.719-11.01,20.984-14.583,27.455-17.729
	c8.539-5.575,19.031-6.303,28.887-7.428c3.806-0.988,7.382-3.094,11.441-2.971c2.696-0.237,5.652,0.59,8.164-0.743
	c2.014-1.026,4.112-1.853,6.287-2.481c2.013-40.951-2.177-25.708,8.631-58.623c10.3-31.587,2.552-2.318,13.93-37.326
	c5.774-18.334,9.182-37.288,14.252-55.805c-13.956-11.644-33.75-21.32-50.735-33.696c-10.766-7.69-13.427-5.075-49.793-18.426
	c-28.448-10.229-48.353-12.793-71.726-44.647c-3.758-5.15-15.575-26.317-14.742-39.753c0.973-18.931,11.192-18.363,14.053-26.122
	c3.484-9.156,16.871-27.225,33.612-39.263c-28.433-13.54-28.775-39.145-42.273-61.771c-3.402,1.764-13.628-1.097-19.015-9.205
	c-6.513-9.55-7.698-20.741-12.33-27.539c-1.547,1.401-2.772,4.174-5.299,3.523c-2.251-0.207-3.599-2.282-5.131-3.676
	c-10.89-10.877-9.304-29.467-16.22-36.062c-1.57,2.267-3.844,3.791-6.525,4.434c-10.423-9.497-9.072-22.701-13.877-29.683
	c-4.77,4.506-4.489,6.624-8.815,2.627c-8.652-9.806-9.768-24.176-13.425-28.251c-2.091,1.792-3.484,4.993-6.418,5.422
	c-2.987-0.881-4.855-3.538-6.877-5.705c-1.608-0.444-3.768-0.054-4.924-1.432c-0.046-1.493,0.835-2.742,1.486-3.99
	c-0.628-1.31-1.256-2.604-1.892-3.883c-24.959,3.461-37.377,31.701-149.403,32.815c-41.495-2.714-43.599-1.108-50.069,11.832
	c16.797,16.969,10.309,24.741,9.55,28.251c-0.253,5.047,0.398,10.392-1.83,15.109c-3.062,7.063-12.734,12.946-20.708,12.705
	c-0.146-3.929,4.151-5.506,5.56-8.769c2.504-3.737,0.375-8.255-0.835-12.069c-4.143-5.299-7.934-10.92-11.863-16.404
	c-3.959-5.468-4.832-12.812-10.124-17.353c-3.144-3.501-12.797,3.579-18.946,0.406c-12.276-6.599-21.466-2.41-29.583-4.733
	c-45.183-12.964-9.096-23.351-55.629-10.231c-3.048,0.429-4.656-2.696-5.59-5.054c-11.107,6.502-7.781,7.469-10.691,13.509
	c-4.526-5.521-3.906-13.808-1.218-20.041c-15.16,6.953-9.387,10.504-14.045,13.953c-3.485-6.065-4.218-20.623,9.22-29.959
	c3.941-2.583,2.418-9.453,12.238-15.378c3.362-2.144,7.038-4.12,11.135-4.105c7.766-10.62,10.338-0.658,35.136-9.986
	c5.051-2.453,5.713,5.924,9.113,7.903c5.169,2.887,11.64,1.409,16.672,4.725c12.087-6.596,14.141,3.343,20.103,5.943
	c3.484-0.842,7.137-0.651,10.584-1.669c3.821-1.049,7.405-2.941,11.357-3.469c44.31-4.35,33.705,2.847,56.073-3.806
	c14.351-4.557,29.231-7.505,43.123-13.455c44.494-18.83,42.364-27.009,80.924-36.614c-25.874-22.749-48.963-46.533-70.708-80.87
	c-5.059,17.196-22.775,20.442-29.959,19.436c-0.008-0.651-0.031-1.953-0.038-2.611c4.893-4.956,13.562-5.993,11.977-23.021
	c-2.383-2.968-10.447-21.613-12.452-34.079c-3.668,0.827-7.903,1.991-11.158-0.613c-4.266-3.63-10.086-5.33-15.638-4.649
	c-8.523,0.732-26.083-10.515-28.557-13.838c-2.183-2.343-3.837-5.437-6.709-6.984c-16.609-0.484-29.247,12.048-34.906,0.75
	c-14.804,7.944-9.808,10.117-15.002,13.823c-3.188-4.592-1.311-15.446,1.371-20.401c-2.864,0.919-5.836,0.237-8.194-1.555
	c-5.92,1.968-12.146,4.296-16.182,9.32c-1.792,2.06-2.634,5.437-5.843,5.644c-1.728-6.642-0.146-18.066,8.171-27.171
	c-1.915,1.616-3.699,3.699-6.433,3.729c-2.028-12.612,16.844-30.523,29.384-28.703c2.129-2.849,5.047-5.376,8.623-6.027
	c26.632,4.403,30.954-8.685,37.395,1.409c0.95,2.198,1.149,4.649,2.045,6.885c3.73,0.681,6.938,2.742,10.43,4.043
	c4.725,1.34,8.432-2.887,12.927-3.132c3.27,0.391,7.298,1.287,8.776,4.626c1.164,1.761,1.692,4.748,4.197,5.016
	c29.281-3.568,32.268-8.953,38.605-4.74c9.014,5.598,19.367,9.075,27.455,16.113c11.72,11.527,1.99,24.06,44.969,56.885
	c11.985,9.282,25.057,16.986,37.67,25.349c0.796-1.662,1.532-3.347,2.221-5.047c-2.313-1.248-4.725-2.32-6.969-3.676
	c1.732-8.032,14.503-12.091,17.889-18.027c-2.443-1.601-4.978-3.056-7.344-4.763c3.482-10.488,19.604-14.297,23.756-22.469
	c-2.198-1.738-4.679-3.063-7.153-4.342c4.867-12.701,23.696-16.158,26.29-26.183c-2.558-0.965-5.192-1.731-7.704-2.795
	c1.564-15.589,19.817-27.208,17.958-39.692c-2.726-0.23-5.514-0.168-8.141-1.026c2.084-16.801,20.596-28.006,20.868-42.196
	c-2.634-0.168-5.276-0.36-7.819-1.087c0.994-15.329,20.599-31.369,21.68-42.84c-2.803,0.061-5.613,0.153-8.393-0.245
	c0.829-17.537,23.32-33.489,21.642-45.39c-2.558,0.666-5.162,1.639-7.827,1.019c-0.689-13.299,13.769-22.435,11.426-33.841
	c-2.091,1.011-4.25,1.93-6.571,2.244c-3.224-10.216,6.387-19.184,4.319-29.377c-2.244,0.682-4.273,2.06-6.609,2.412
	c-4.292-1.68,3.607-15.057,1.731-20.976c-1.424,1.003-2.841,2.014-4.273,3.01c-3.852-5.598-0.398-13.103-4.319-18.602
	c-1.463,1.118-2.872,2.305-4.281,3.5c-3.767-6.147-2.073-14.868-5.116-15.638c-1.478,0.95-2.55,2.382-3.821,3.576
	c-5.23-4.777-4.901-11.467-8.975-15.462c-0.85,0.904-1.7,1.815-2.55,2.726c-5.567-3.684-7.245-10.637-11.809-15.209
	c-0.842,0.728-1.639,1.524-2.573,2.137c-4.365-2.405-7.574-6.318-10.645-10.147c-6.318,1.264-10.714-4.74-16.488-6.027
	c-0.352,1.003-0.36,3.745-2.167,3.017c-5.422-1.708-9.948-5.422-14.137-9.144c-0.084,1.018-0.176,2.052-0.268,3.086
	c-4.503,0.061-8.577-2.045-12.835-3.178c-0.092,0.597-0.283,1.792-0.375,2.389c-3.201,1.532-6.816,1.179-10.254,1.271
	c0.113,5.955-7.419,5.822-13.004,8.631c0.015,5.008-4.48,8.056-8.194,10.538c-12.366,7.627-15.262,21.588-20.891,27.393
	c-4.998,9.455-10.864,24.029-26.329,21.405c-6.777,1.432-12.881,5.108-19.613,6.77c-17.077,4.249-45.292,21.052-57.337,37.035
	c-21.84,28.452-36.667,18.116-56.747,34.393c0.59-8.003,4.174-15.914,10.116-21.366c-1.738-3.071-2.91-6.532-2.627-10.101
	c-10.89-0.16-14.772-3.729-19.858-4.564c4.352,5.152,2.673,5.533,14.604,13.027c1.593,0.942,2.887,2.305,3.615,4.021
	c-14.868,1.171-22.537-5.409-31.689-8.501c-2.19,2.428-4.626,4.626-6.816,7.053c0.758,3.102,1.8,6.127,3.094,9.052
	c-2.994,1.532-6.992,1.486-9.473-0.996c-1.486-1.225-1.532-3.255-1.922-4.985c-9.307-10.047-13.24-19.889-5.874-31.016
	c2.719-3.324,2.68-7.85,4.61-11.564c2.305-6.134,6.486-11.457,8.118-17.851c0.85-3.768-0.345-8.723,3.4-11.196
	c2.618-17.158,12.173-9.684,20.309-10.875c1.645-0.812,47.162-29.634,47.197-29.66c3.27-2.457,13.849-17.144,15.492-19.804
	c-1.96-4.817-8.278-7.566-7.39-13.494c-2.129-2.588-3.791-5.59-4.066-8.983c0.574-0.927,1.149-1.846,1.723-2.765
	c2.971,1.187,5.116,3.676,7.957,5.108c1.026-0.735,2.083-1.432,3.048-2.236c-0.835-3.883-0.873-7.888,0.513-11.648
	c-2.198-4.495-4.894-10.691-0.996-15.018c2.604,2.045,4.181,4.993,6.211,7.543c3.201-3.615,6.954-6.663,10.89-9.435
	c-1.57-4.717-2.336-11.365,2.68-14.282c2.19,2.895,2.964,6.525,4.909,9.565c7.129-3.251,5.069-0.652,13.586-7.191
	c-0.168-2.068-1.815-4.013-0.582-6.065c1.532,0.421,2.864,1.317,4.22,2.121c3.4-5.1,7.053-10.208,12.123-13.777
	c2.489-1.601,3.959-5.69,7.505-4.641c13.237-16.004,6.395-12.348,41.637-41.806c3.416-2.665,4.878-6.908,7.727-10.04
	c0.728-1.087,2.994-0.475,2.497,1.019c-3.578,20.625-6.962,20.066-23.22,43.797c0.176,1.103,0.345,2.213,0.498,3.324
	c0.467-0.751,0.942-1.501,1.424-2.244c5.112,6.058,11.532,25.565,12.399,28.014c1.019-0.406,2.037-0.819,3.056-1.218
	c-1.581-6.036-1.845-17.763,1.861-23.893c5.747,3.414,10.233,12.384,12.774,18.717c3.86-1.279,7.827-2.213,11.855-2.78
	c1.587-26.64,2.544-28.983,5.047-32.386c8.238,5.291,13.268,18.737,15.439,28.695c1.509-0.13,3.025-0.245,4.541-0.345
	c0.249-9.056,4.277-19.937,6.846-23.273c4.112,7,6.486,15.117,6.241,23.273c4.197,0.368,8.393,0.812,12.567,1.409
	c1.704-7.821,12.251-25.588,12.942-21.228c1.999,7.696,2.887,15.822,1.539,23.717c0.666,0.13,1.999,0.406,2.665,0.544
	c2.336-4.35,5.629-8.156,9.42-11.303c0.682,4.289,0.528,8.684-0.574,12.896c6.096,1.279,12.161,2.711,18.127,4.534
	c8.243-15.502,3.233-8.099,25.678-31.008c0.942-1.072,2.274-1.608,3.63-1.937c1.514,8.491-1.41,14.93-7.926,39.876
	c3.76,1.386,7.482,2.895,11.204,4.411c8.055-14.493,20.6-29.043,24.269-29.836c1.405,10.331-3.092,29.083-5.95,39.171
	c5.682,3.216,11.533,6.134,17.055,9.619c1.018-0.971,21.315-22.006,33.451-22.676c0.812,3.645-0.322,7.314-0.123,10.99
	c0.775,19.616,0.598,20.123-8.164,32.003c1.386,1.394,2.78,2.788,4.166,4.197c13.367-10.742,23.526-15.074,29.262-16.266
	c0.161,3.462-1.478,6.601-2.466,9.833c-5.341,14.587-7.394,15.249-13.134,22.017c2.833,3.599,5.728,7.145,8.677,10.652
	c7.045-3.898,14.834-6.747,22.837-7.781c-1.841,4.385-10.467,12.981-15.722,16.909c1.884,2.811,3.73,5.652,5.545,8.516
	c54.32-11.781,61.249-17.659,67.798-14.91c0.804,1.853-0.973,3.906-2.052,5.414c-24.974,26.741-17.073,19.3-48.461,42.495
	c1.455,2.849,2.818,5.744,4.128,8.661c4.024-0.712,28.854-6.223,37.502-1.478c-1.82,6.08-21.322,18.047-30.602,24.292
	c0.888,6.793,2.045,13.547,3.132,20.317c9.196-1.252,26.569-2.07,33.535,0.973c-4.434,4.598-19.893,14.287-30.793,17.698
	c0.559,5.851,1.164,11.702,1.233,17.591c42.732-0.747,46.442-2.867,53.216,1.616c-2.9,3.937-33.623,22.565-40.121,26.022
	c-4.434,2.144-9.32,3.086-14.076,4.235c-0.222,3.224-0.322,6.463-0.513,9.695c7.773-0.325,5.391,2.33,21.228,1.769
	c-1.002,0.766-16.494,8.966-22.431,10.032c-0.613,4.717-1.149,9.45-1.509,14.198c19.157-0.536,36.924-2.15,41.967,0.873
	c-2.406,2.361-27.304,14.685-40.718,17.415c0.743,4.511,1.424,9.021,2.052,13.555c6.164,0.461,8.966,1.714,25.004,10.032
	c-4.77,4.126-18.148,5.994-21.987,6.349c0.636,3.507,1.593,6.946,2.558,10.384c11.341-1.107,31.731-1.684,41.714,3.484
	c-0.602,0.902-16.205,13.971-21.81,17.514c-3.316,2.091-7.038,3.4-10.691,4.763c1.294,3.446,2.504,6.923,3.775,10.392
	c4.878-0.582,9.802-0.023,14.566,1.095c-3.446,3.515-7.658,6.28-12.062,8.439c1.447,3.206,9.687,14.553,11.372,16.189
	c5.483-0.59,10.913,0.337,16.358,0.873c5.603-3.373,18.579-18.966,30.043-28.128c11.772-9.495,26.864-15.577,31.689-19.796
	c19.854-15.301,57.176-32.627,81.161-41.239c22.854-8.28,23.551-8.131,25.295-9.933c39.183-39.07,22.747-31.576,53.492-63.716
	c19.912-19.3,61.767-34.78,71.221-42.886c15.934-17.77,14.692-8.798,25.578-26.413c5.154-14.221,8.064-29.124,12.697-43.506
	c2.13-6.885,48.028-135.944,32.264-175.54c-1.968-5.514-4.84-11.418-2.734-17.353c1.524-0.276,3.04-0.574,4.58-0.881
	c-3.911-6.045-12.959-10.149-8.34-24.031c5.185-15.076,11.274-14.83,20.891-14.864c2.129-6.701,5.039-14.275,1.723-21.091
	c-8.089-11.765-24.638-26.588-28.496-29.675c-6.257-4.8-13.217-5.421-16.917-10.836c45.447,3.533,77.503,32.306,81.314,49.548
	c3.909,16.296,0.561,17.614-2.382,26.75c5.326,16.673,5.985,9.203,4.878,20.47c14.612,6.208,34.187,23.891,45.512,35.649
	c5.226-21.936,20.279-86.375,12.284-108.914c-1.539-5.859-4.442-12.031-2.42-18.119c0.636-2.098,3.193-2.206,4.894-2.979
	c-9.771-8.535-15.82-12.839-9.511-26.796c11.389-23.853,19.61-13.735,28.588-20.325c9.167-20.617,13.33-28.809-18.548-67.599
	c-2.933-3.722-6.9-6.379-10.676-9.144C1119.873,39.202,1117.177,37.295,1115.722,34.408 M289.836,321.244
	c-1.378,1.524-0.743,3.875,0.046,5.537c2.045,2.994,5.912,3.01,9.029,4.074c-2.144-6.425-1.516-13.18-0.957-19.789
	C295.702,314.811,292.539,317.852,289.836,321.244 M221.786,451.081c-0.107,0.59-0.306,1.761-0.414,2.351
	c-1.524-0.077-3.04-0.199-4.541-0.414c-1.279,0.452-2.55,0.934-3.814,1.417c1.041,1.202,2.091,2.397,3.147,3.599
	c3.768-2.604,7.421-5.399,10.545-8.761C225.056,449.832,223.409,450.437,221.786,451.081 M202.678,459.39
	c0.375,1.47,0.712,2.956,0.98,4.465c-1.287-0.436-2.565-0.865-3.86-1.287c-0.888,0.314-1.8,0.59-2.711,0.827
	c-2.29,1.478-4.426,3.178-6.617,4.809c1.31,1.915,2.596,3.844,3.768,5.858c7.076-4.074,13.157-9.565,19.697-14.397
	c-1.861-1.049-3.691-2.152-5.445-3.354C206.508,457.238,204.555,458.249,202.678,459.39 M179.336,476.276
	c1.524,1.876,3.37,3.454,5.292,4.917c2.788-2.55,5.805-4.832,9.006-6.831c-2.918-0.996-6.004-1.241-9.006-1.846
	C182.851,473.749,181.082,474.997,179.336,476.276 M167.443,484.256c-0.153,0.896-0.306,1.8-0.459,2.711
	c-0.567,0.031-1.7,0.107-2.267,0.146c1.432,2.374,2.428,5.008,2.504,7.811c-3.155-0.628-6.042-2.083-8.761-3.752
	c-1.96,1.371-4.082,2.872-3.584,5.629c2.979,2.098,5.874,4.335,9.083,6.073c3.033-3.01,6.448-5.636,9.197-8.929
	c2.818-2.443,2.397-6.525,4.013-9.649c-1.846-0.858-3.615-1.892-5.522-2.596C170.139,482.364,168.814,483.352,167.443,484.256
	 M178.456,484.7c0.161,0.965,0.329,1.938,0.498,2.925c0.567-0.804,1.141-1.601,1.715-2.389
	C180.117,485.106,179.015,484.838,178.456,484.7 M184.169,495.751c1.256,1.187,2.818,1.807,4.557,1.593
	c-0.046-1.271-0.069-2.527-0.061-3.783C186.972,493.736,185.631,494.992,184.169,495.751 M572.95,1143.148
	c1.149-0.061,1.417-2.121,0.176-2.229C572.047,1140.989,571.725,1143.018,572.95,1143.148 M752.45,1389.886
	c-5.588,12.108-15.313,38.4-13.279,51.463c0.735,4.924,3.308,9.335,6.333,13.218c4.266-13.746,5.69-28.121,7.88-42.281
	c0.766-5.996,2.872-11.702,3.653-17.683C755.559,1392.973,754.027,1391.403,752.45,1389.886z"/>
</svg>
