<?xml version="1.0" encoding="utf-8"?>

<!DOCTYPE svg PUBLIC "-//W3C//DTD SVG 1.1//EN" "http://www.w3.org/Graphics/SVG/1.1/DTD/svg11.dtd">
<svg height="400px" width="400px" version="1.1" id="Layer_1" xmlns="http://www.w3.org/2000/svg" xmlns:xlink="http://www.w3.org/1999/xlink" x="0px" y="0px"
	 viewBox="0 0 1187.514 1665.875" enable-background="new 0 0 1187.514 1665.875" xml:space="preserve">
<g>
	<path fill="#1d3557" d="M356.003,1218.974c-4.668,8.645,0.249,15.19-3.371,21.079c-4.713,7.666,0.098,12.997-4.806,19.879
		c-51.186,71.835-54.664,59.932-52.153,56.774c15.759-19.819,14.451-136.267,11.896-161.195
		c-3.718-36.279,0.813-26.708-7.774-37.113c4.151,22.493,3.995,45.074,3.516,69.027c-4.591-12.806-14.77-20.336-20.094-31.258
		c-0.421,0.255-0.842,0.509-1.264,0.763c22.955,38.184,21.807,29.336,19.44,72.244c-0.059,1.075-0.156,2.245-1.173,2.391
		c-1.335,0.192-1.168-1.262-1.428-2.124c-3.322-11.018-9.836-20.298-15.994-30.047c-1.031,2.496-0.926,2.412,0.438,4.12
		c1.728,2.166,15.144,32.391,15.88,34.07c3.021,6.89-2.218,31.135-3.799,38.478c-14.955,69.419-16.357,56.811-56.624,91.31
		c-1.184,1.015-2.266,2.149-3.79,3.029c1.414-3.994,0.711-8.492,3.893-11.981c2.283-2.503,1.764-6.073,2.008-9.092
		c0.641-7.941,4.271-15.19,4.814-23.11c7.865-114.645,2.793-0.975-4.983-293.307c-0.798-29.985,4.11-9.866-5.353-38.121
		c0,19.784,0,38.731,0,57.36c-3.632-6.669-10.142-11.861-14.426-18.833c2.905,13.403,15.625,17.871,16.616,44.545
		c1.987,53.464,10.601,165.109,2.913,202.418c-3.996-11.496-11.692-19.042-18.661-27.145c8.291,17.211,13.583,25.672,16.514,44.558
		c1.077,6.94-4.639,37.456-5.728,39.555c-2.166-9.226-6.081-17.558-11.717-25.853c-0.268,4.019,1.668,6.662,2.537,9.611
		c13.548,45.974-1.737,46.651-2.518,58.254c-0.755,11.223-23.635,20.73-38.946,34.974c-2.769,2.576-4.652,6.353-8.886,7.507
		c-1.137-3.794-0.434-7.231,2.021-10.196c1.522-1.838,11.069-35.335,12.165-83.843c0,0-5.006-123.832-4.887-131.751
		c1.501-99.559-11.083-92.454-5.77-222.957c0.06-1.48,1.226-4.515-1.36-4.246c-2.243,0.234-5.984,0.16-5.772,4.778
		c0.155,3.377,0.359,63.67,0.571,68.803c1.721,41.689,4.062,64.649,4.062,64.649c-4.459-9.488-10.247-16.623-17.115-22.922
		c1.912,5.126,6.07,8.785,8.677,13.453c11.981,21.451,6.797,28.774,8.57,89.152c-6.811-8.125-12.967-15.469-19.424-23.172
		c0.872,7.791,12.026,19.085,17.313,28.956c5.102,9.525,0.587,14.975,4.282,36.752c0.118,0.696-0.063,1.442-0.13,2.604
		c-7.715-8.998-15.174-17.698-22.634-26.397c6.182,16.693,22.979,21.738,23.921,50.468c0.685,20.897,12.744,156.075-33.657,192.391
		c-13.28,10.393-40.583,35.867-41.841,30.235c-1.464-6.559,1.703-5.529,4.072-15.066c14.493-58.349,7.915-144.211,1.457-296.81
		c-7.96-188.066-0.203-176.239-1.263-272.46c-0.041-3.698-2.401-106.214,0.524-175.511c1.219-28.891,2.475-21.333,0.786-34.866
		c-0.643-5.153,2.28-15.942,2.394-17.701c0.35-5.419-4.819-6.042,8.62-9.125c13.209-3.031,9.699-4.343,16.039-0.294
		c20.105,12.841,36.275,4.138,35.426,13.097c-0.722,7.627,0.876,15.201,1.405,22.801c0.91,13.063-0.158,26.075-0.496,39.106
		c-0.874,33.638-2.627,19.68,6.101,30.646c-1.755-14.568-0.561-95.503-0.591-95.759c-0.227-1.909,0.7-2.989,2.616-3.26
		c3.135-0.442,6.268-1.308,9.396-1.281c6.854,0.06,8.571-3.651,14.985-2.714c8.475,1.238,15.827,7.296,26.561,5.127
		c1.909-0.386,3.251-0.284,2.941,2.492c-0.931,8.322-1.483,67.56-1.278,72.173c-5.196-7.913-10.225-14.732-15.672-21.222
		c-0.343,0.215-0.686,0.43-1.028,0.645c23.966,41.924,15.097,18.692,16.662,66.866c-6.342-7.48-10.331-15.705-17.098-21.832
		c1.057,4.029,3.732,7.285,5.815,10.657c3.448,5.581,5.836,11.454,8.016,17.561c3.836,10.745-1.029,10.966,0.631,17.969
		c4.908-11.575,9.819-22.915,8.663-36.078c-2.274-25.894,2.212-86.951,1.678-108.522c-0.043-1.744,0.822-2.636,2.216-2.836
		c16.097-2.305,27.934-12.099,40.095-21.826c15.906-12.723,19.172-28.066,37.757-80.178c10.057-28.2,11.336-27.2,6.784-28.678
		c-10.363-3.366-20.58-7.094-29.056-14.444c1.283-1.313,2.978-0.817,4.41-0.82c13.582-0.032,25.28-6.645,37.704-10.691
		c15.691-5.11,14.546-6.025,17.134-12.428c1.035-2.559-1.146-5.425-3.914-2.805c-7.775,7.358-18.283,9.129-27.457,13.598
		c-22.786,11.1-50.101,3.715-69.436-12.744c36.662-5.226,86.974-56.67,88.817-60.569c1.364-2.886,3.206-3.425,5.265-0.483
		c10.894,15.566,25.785,17.049,32.49,18.743c5.567,1.407,4.964-4.88,7.821-7.696c2.596-2.559,1.223-3.688-1.765-3.635
		c-17.743,0.314-23.859-2.472-32.688-12.086c-2.508-2.732-5.918-4.755-7.24-8.505c-0.349-0.99-1.815-1.759-1.094-2.876
		c0.55-0.852,1.816-0.23,2.765-0.272c10.739-0.476,21.52-0.982,31.39-5.847c10.861-5.353,27.556-13.685,44.663-33.363
		c2.084-2.398,1.711-3.331-1.253-3.438c-11.546-0.414-20.434-6.508-28.709-13.641c-6.494-5.598-9.235-13.556-12.056-21.324
		c-1.023-2.816,1.51-1.602,2.333-1.432c24.671,5.087,57.932-4.661,75.622-18.432c2.235-1.74,2.427-4.422,3.531-6.654
		c0.587-1.186-0.983-1.324-1.94-1.385c-34.288-2.195-45.207-44.89-37.197-42.983c16.826,4.005,41.701,2.765,46.495,1.779
		c5.003-1.028,5.686-2.41,3.392-6.989c-0.552-1.102-1.035-0.877-1.964-0.674c-43.18,9.448-52.124,3.452-73.326-18.702
		c-6.89-7.199-8.395-19.084-11.317-21.879c-0.519-0.496-1.224-1.081-0.661-1.852c0,0,33.138,2.692,58.778-5.277
		c4.498-1.398,5.272-3.47,3.001-7.653c-1.106-2.038-2.681-0.84-3.78-0.337c-31.93,14.61-81.765,11.79-101.972-30.542
		c-3.028-6.343,1.481,1.003,43.182-9.822c11.211-2.91,21.969-7.111,32.985-10.555c1.312-0.41,3.542-0.738,1.883-2.664
		c-1.227-1.424-0.221-5.573-4.808-3.665c-111.339,46.309-120.094-23.155-112.644-22.191c22.019,2.851,63.658-15.428,83.496-23.862
		c1.709-0.727,0.632-1.458,0.25-2.215c-2.399-4.754-3.082-0.585-22.419,6.517c-34.547,12.69-58.94,18.56-95.002,6.45
		c-25.061-8.416-22.417-14.01-36.53-20.714c-2.536-1.205-2.87-3.159-0.625-4.818c15.043-11.113,27.18-23.429,44.697-30.888
		c172.626-73.513,213.6,193.127,244.281,232.845c1.079-1.706-0.285-3.418-0.211-5.127c2.971-68.531-1.975-13.232,15.964-119.92
		c29.518-175.552,181.551-161.16,184.651-28.446c0.217,9.289-0.57,6.321,0.552,15.828c2.865-2.623,4.281-5.555,5.703-8.37
		c3.768-7.455,10.158-13.904,14.995-20.735c61.032-86.19,126.838-106.4,208.699-42.504c9.664,7.543,12.876,8.118,8.565,12.076
		c-15.003,13.773-55.38,29.839-84.428,28.321c-30.433-1.59-56.94-16.493-62.402-18.973c-1.966-0.893-9.272,3.401-5.017,4.806
		c20.033,6.614,31.779,26.76,91.103,18.399c7.288-1.027-12.538,21.679-24.678,29.188c-31.156,19.272-74.818,15.19-102.651,2.914
		c-3.354-1.479-4.83-0.94-6.099,2.425c8.212,3.808,37.423,13.066,45.617,13.044c12.776-0.034,25.502-0.429,38.101-2.76
		c13.594-2.515-29.269,62.127-94.643,46.329c-5.807-1.403-12.065-6.695-14.289-3.827c-0.736,0.949-1.08,2.213-1.846,3.129
		c-1.772,2.119-1.242,3.319,1.17,4.387c8.185,3.624,28.408,7.201,39.629,5.789c24.67-3.106,24.948-4.857,23.789-0.751
		c-6.272,22.211-17.315,36.409-42.601,41.134c-22.139,4.137-33.954-3.092-39.942-3.353c-3.079-0.135-2.126,3.027-3.213,4.544
		c-1.13,1.577,0.707,1.942,1.802,2.3c19.489,6.386,39.857,8.196,58.792-0.595c2.447-1.136,3.177-0.586,3.336,2.027
		c0.116,1.903-8.009,33.728-32.797,40.984c-1.034,0.303-2.325,0.052-2.422,1.57c-0.086,1.344,1.236,1.376,2.03,1.722
		c7.446,3.249,8.19,3.038,9.203,2.139c9.751-8.647,23.359-23.217,26.644-32.287c0.43-1.188,1.561-0.817,2.544-0.629
		c17.445,3.339,34.677,1.233,51.814-2.242c10.698-2.169,14.378-6.833,14.326-1.613c-0.133,13.207-2.414,25.485-12.346,35.501
		c-12.634,12.741-27.613,19.45-45.482,19.892c-6.438,0.159-7.469-0.576-7.41,1.784c0.077,3.069,1.357,5.967,5.699,5.35
		c7.652-1.087,15.492-1.036,22.864-3.761c8.256-3.053-1.803,16.516-8.204,25.941c-2.385,3.512-7.176,4.457-9.631,8.098
		c-0.729,1.081-1.085,8.733-0.161,8.876c4.886,0.756,6.174-1.15,20.441-20.845c3.351-4.626,3.69-10.418,5.534-15.632
		c1.48-4.187,1.654-4.356,5.191-1.398c21.325,17.835,41.952,24.301,51.831,24.988c10.321,0.719,16.056-1.021,12.973,2.787
		c-17.488,21.599-35.872,34.684-69.373,28.82c-4.728-0.828-9.791-2.073-14.058-4.943c-0.977-0.657-2.26-1.304-3.355-1.232
		c-1.518,0.1-3.72-2.174-4.325,0.034c-0.659,2.401-0.561,5.53,2.829,6.657c12.795,4.255,25.313,9.876,39.315,8.405
		c3.137-0.33,3.347,0.618,2.507,3.427c-9.799,32.762-34.208,31.595-27.4,40.721c1.332,1.786,2.8-0.269,4.047-0.848
		c5.532-2.568,11.474-5.528,14.449-10.592c4.43-7.542,5.859,0.017,6.832,1.234c21.923,27.412,53.825,53.226,90.451,53.95
		c1.271,0.025,3.14-0.692,3.772,1.173c0.535,1.579-0.579,2.764-1.611,3.839c-11.554,12.027-30.372,17.792-31.638,18.337
		c-5.701,2.453-11.315,1.435-16.877,1.407c-16.824-0.087-31.723-7.235-46.756-13.332c-0.359,4.73,2.608,8.465,7.262,10.385
		c10.842,4.471,26.059,8.12,42.751,8.982c-12.988,14.161-27.404,15.368-31.519,16.324c-0.923,0.214-3.201-0.701-2.302,1.482
		c0.786,1.907-0.445,5.606,3.537,5.294c6.489-0.508,10.283-6.955,12.073-0.126c5.504,21.004,9.328,23.225,18.692,32.054
		c0.381-1.909-0.674-3.006-1.393-3.779c-8.829-9.477-10.819-21.498-12.41-33.579c-0.394-2.988,3.172-4.135,5.088-5.565
		c28.406-21.182,25.469-14.009,33.343-18.164c3.354-1.769,4.912-1.012,5.23,2.758c3.141,37.205,24.538,83.255,28.083,85.524
		c2.332-3.916-4.119-4.28-4.183-13.514c-0.022-3.208-2.87-4.59-4.054-7.003c-2.183-4.451-2.953-9.33-4.292-14.032
		c-8.379-29.438-6.23-9.609-8.978-39.924c-0.467-5.148-0.146-10.375-0.743-15.501c-0.436-3.745,1.015-6.379,3.808-8.066
		c7.134-4.308,12.273-10.931,19.081-15.741c5.769-4.075,12.085-4.73,18.185-6.83c9.624-3.313,9.604-2.557,10.699,4.132
		c3.211,19.609,9.129,38.628,11.835,58.384c3.909,28.542,17.435,54.112,17.963,71.695c0.194,6.47,2.08,28.358,2.761,29.36
		c0.706,1.04,1.876,1.736,3.123,1.411c1.378-0.36,0.662-1.61,0.59-2.489c-0.741-9.081-1.291-18.157,0.345-27.488
		c20.238,24.267,38.971,38.674,69.96,44.25c2.018,0.363,3.046,1.183,3.702,2.883c5.634,14.593,16.171,25.36,26.913,36.307
		c10.446,10.646,37.709,20.477,39.195,20.539c1.86,0.078,2.515,1.439,2.522,3.346c0.041,11.263,0.999,22.514,1.081,33.746
		c0.043,5.841-0.508,11.832-0.431,17.72c2.339,179.885-2.181,112.262-2.439,189.705c-0.004,1.123-3.298,67.069-2.241,77.286
		c0.426,4.111-0.393,8.351-0.685,13.24c-4.46-7.042-7.395-14.163-11.163-20.889c0.31,4.121,5.105,16.785,6.539,18.596
		c6.125,7.74,4.913,4.817-3.42,179.438c-0.595,12.475-3.505,104.305-5.846,114.781c-4.656-1.538-1.151-5.818-10.465-21.148
		c2.281,7.739,3.117,15.958,9.016,22.369c2.088,2.269-1.043,49.547-0.666,77.33c0.014,1.059-0.98,49.405,4.469,86.555
		c2.308,15.731,4.881,20.26,0.188,18.141c-53.05-23.955-50.529-27.138-56.649-36.408c-14.714-22.284-13.527-27.186-20.109-60.656
		c-2.08-10.576,22.273-47.187,19.954-55.507c-5.922,13.643-13.526,25.223-20.86,38.121c-0.794-5.193-5.719-60.32-1.593-101.834
		c1.295-13.029,9.083-15.416,22.344-48.02c0.297-0.731,0.407-1.655-0.825-2.646c-8.825,11.568-16.427,23.684-21.111,37.643
		c0.125-2.073,2.593-37.678,2.324-56.3c-0.222-15.367,17.818-34.714,24.806-49.599c6.893-14.684-11.758,10.375-22.521,33.871
		c-5.607,12.24,3.842-101.179,9-166.046c2.989-37.592-4.12-27.088,17.63-61.502c2.495-3.947,3.208-8.755,6.018-12.62
		c-8.834,9.342-15.111,20.341-21.231,31.557c-1.199-0.866,3.014-171.77,3.008-170.769c0.011-1.865-4.671-5.927-6.38-5.575
		c-1.276,0.263-0.638-2.943-1.733,43.859c-7.443,317.984-41.383,525.582,4.005,606.081c-5.216-2.205-8.153-6.097-11.876-8.876
		c-52.502-39.186-47.897-35.559-52.792-47.781c-6.695-16.717-7.845-18.292,2.53-41.486c6.273-14.023,8.148-14.617,6.273-18.407
		c-6.557,9.46-12.729,18.611-15.405,29.845c-1.33-2.117-4.138-14.198-4.357-18.308c-7.702-144.535-7.801-126.047,4.169-147.468
		c3.745-6.703,7.364-13.342,8.366-21.124c-5.983,9.13-12.281,18.041-17.079,27.931c-2.246-1.006-0.413-1.582-0.245-28.396
		c0.274-43.664-4.326-35.115,12.931-63.623c2.612-4.314,5.466-8.42,5.894-13.806c-6.693,8.514-13.605,16.843-19.545,26.607
		c-1.952-7.275,23.797-382.991,15.779-389.345c-12.04,53.231,1.536-23.075-16.488,256.117
		c-11.902,184.367-6.014,144.116-4.595,285.491c0.609,60.644,3.922,62.525,9.3,94.717c1.204,7.208,1.289,14.618,3.529,21.978
		c-69.596-63.7-37.673-21.281-59.604-62.603c-12.331-23.233,6.95-39.657,10.402-57.193c-6.29,4.27-18.613,35.783-18.958,25.758
		c-0.371-10.79-3.729-21.437-1.52-32.351c2.715-13.415,16.99-26.402,16.962-38.161c-7.324,9.654-14.311,19.49-19.332,30.637
		c-0.97-0.43-1.168-1.394-1.151-2.107c0.273-11.613-2.715-22.953-2.963-34.488c-2.198-102.289,1.622-69.268,20.806-109.692
		c0.294-0.62,0.44-1.311,0.299-2.172c-8.231,9.362-14.16,20.248-21.002,31.678c0-24.743,0.285-59.228,8.28-155.713
		c7.706-92.992,10.25-69.073,2.859-84.705c-1.57-3.321-1.15-4.306-14.236,175.671c-9.16,125.996,1.29,156.725,1.715,184.766
		c0.577,38.117,10.309,57.839,13.823,78.527c-19.472-20.686-45.504-34.62-60.366-60.071c-0.824,4.091,0.987,7.519,1.605,11.132
		c6.562,38.318,6.782,78.114,8.149,116.898c0.408,11.568,10.065,24.214-0.129,23.359c-6.326-0.531-12.589,1.603-18.967,0.729
		c-3.205-0.439,1.013,9.322,0.954,13.051c-0.081,5.081,2.273,9.529,2.702,14.461c0.951,10.934,1.252,10.335-1.976,11.725
		c-4.892,2.105-5.253,4.718,0.12,7.014c37.426,15.994,35.964,21.627,89.431,42.715c7.887,3.111,12.194,9.83,17.059,15.996
		c18.512,23.465,18.275,23.638,16.785,25.73c-12.496,17.554-18.335,17.896-33.826,16.527c-23.366-2.066-27.982-5.991-41.599-9.082
		c-1.449-0.329-2.764-1.023-2.833-2.465c-0.752-15.65-30.366-39.031-42.255-48.521c-1.763-1.407-3.102-0.943-3.716,0.877
		c-3.14,9.3-11.052,13.408-18.831,17.766c-3.64,2.039-6.952,2.244-11.089,0.895c-26.384-8.604-17.909-44.168-17.776-49.545
		c0.337-13.589,4.207-17.424-1.039-18.808c-9.353-2.468-10.641,0.19-9.415-7.425c0.869-5.399,0.303-10.976,2.221-16.244
		c0.887-2.436-1.289-2.005-2.36-1.81c-13.155,2.389-168.385,19.369-228.783,8.372c-11.589-2.11-12.884-2.507-12.1,1.782
		c5.473,29.967,5.48,60.734,2.38,62.083c-1.559,0.679-57.005-54.004-63.528-68.776c-0.347-0.785-1.13-0.781-1.881-0.846
		c-101.466-8.684-51.883-41.981-78.855,36.315c-2.389,6.935-4.856,14.472-13.562,16.158c-23.793,4.605-24.831-1.275-26.754,4.382
		c-3.992,11.744-8.935,23.179-11.089,35.499c-0.782,4.473-3.633,6.792-7.903,8.047c-12.946,3.806-17.149,23.739-54.404,14.525
		c-1.575-0.39-2.699-1.612-3.566-3.016c-24.231-39.212-33.054-39.779-21.93-54.041c4.622-5.925,9.862-10.993,16.886-13.159
		c8.927-2.754,3.388-5.654,25.45-23.504c11.918-9.643,25.337-17.197,37.434-26.601c15.94-12.394,1.734-5.707,4.11-28.704
		c0.38-3.68-0.343-6.339-4.483-7.763c-4.696-1.616-9.093-4.12-13.937-5.4c-4.357-1.152-4.123-2.016-0.255-30.568
		c5.647-41.685,2.044-59.851,15.018-141.52c1.159-7.298,1.98-14.375-2.873-21.171c-2.894-4.052-4.13-9.269-6.242-13.903
		C363.28,1237.417,359.537,1228.631,356.003,1218.974z M914.205,1565.876c-1.704-4.257-6.166-4.422-9.458-6.313
		c-0.229-0.132-1.068,0.255-1.179,0.561c-0.341,0.937,0.751,1.462,1.153,1.508c3.632,0.418,6.108,3.407,9.555,4.17
		c1.12,1.725,19.248,18.212,28.859,25.876c-1.52-6.833,1.06-0.562-21.154-20.589
		C919.704,1569.037,917.506,1566.542,914.205,1565.876z M565.898,1538.548c1.055-7.926-4.66-25.474-7.455-34.698
		c-11.821-39.012-260.378-513.768-260.924-514.771c-41.486-76.19-28.332-66.433-39.817-66.333c-2.992,0.025-3.644,1.118-2.144,3.867
		c0,0.001,154.947,305.457,154.948,305.459c44.171,89.419,47.425,80.564,34.752,88.342c-4.643,2.849-4.047-0.34-12.986-15.871
		C202.727,905.759,235.149,935.683,223.65,940.324c-5.115,2.064-2.103,3.719,7.174,21.415
		c27.639,52.723,276.613,516.526,319.395,560.479C552.463,1524.524,566.274,1535.724,565.898,1538.548z M845.851,955.191
		c-5.156,6.17-11.081,9.862-15.746,14.98c-4.415,4.844-3.107-1.379-0.946-26.043c1.009-11.516,4.077-15.402,4.947-25.751
		c1.023-12.163,2.562-24.215,5.928-35.95c1.623-5.658,0.636-11.801,3.044-17.154c2.647-5.883,0.498-9.916-3.678-13.753
		c-1.651-1.517-2.144-1.036-2.394,0.886c-2.123,16.332-8.105,40.902-8.978,72.799c-0.074,2.692,0.222,5.714-0.986,8.863
		c-4.042-5.263-24.199-40.371-27.066-47.604c-2.71-6.839-6.75-16.873-4.42-39.049c1.123-10.687,0.103-24.738,1.38-36.979
		c0.623-5.969-0.718-10.263-5.701-13.941c-1.359,22.155-2.94,43.942,1.079,66.61c-16.142-11.718-23.91-27.838-31.188-44.517
		c-1.974,13.758,1.307,19.884,2.571,40.364c0.351,5.688-2.299,25.854,6.505,66.364c10.793,49.666,38.84,86.371,48.438,126.542
		c7.572-30.723-5.376-63.846,18.495-84.178C840.635,964.698,844.31,961.367,845.851,955.191z M364.464,1045.421
		c-0.414,0.101-0.827,0.201-1.241,0.302c-3.704-12.515-10.667-23.301-17.341-34.248c3.103,14.32,22.011,34.3,17.512,68.137
		c-0.888,6.68-0.006,4.091,19.86,45.042c2.007,4.137,4.024,8.282,7.644,12.859c-0.941-28.615,11.029-184.789,12.153-194.849
		c6.999-62.625,13.584-72.906,8.928-83.13c-1.448,1.514-1.129,3.424-1.3,5.18c-1.472,15.164,1.646-3.244-12.201,57.852
		c-9.223,40.69-5.889,40.635-15.119,33.016c-5.577-4.605-10.998-9.37-15.754-15.18c1.026,14.984,0.047,29.584-4.175,44.656
		c-5.781-11.802-12.219-22.606-20.9-31.901c-1.11,3.765,10.769,20.023,13.49,25.206
		C367.949,1001.081,364.464,1012.289,364.464,1045.421z M648.779,130.83c0.981,5.707,8.133-0.531,28.743,1.731
		c3.437,0.377,6.955,0.818,10.503-0.167c8.491-2.355,8.348-2.197,5.745-10.447c-8.27-26.219-31.708-51.001-52.259-47.606
		c-27.438,4.532-40.561,21.494-56.277,43.476c-3.108,4.348-0.252,3.014,40.371,12.814c5.893,1.422,2.483-8.046,9.663-23.261
		c0.412-0.873,0.298-2.023,1.731-1.772c1.893,0.332,2.02,1.092-0.945,23.68c-0.231,1.757,0.334,2.395,1.983,2.72
		c3.883,0.765,3.295-1.78,2.943-3.954c-1.376-8.489,0.531-16.754,1.533-25.088c0.18-1.495,1.09-2.425,2.307-2.312
		c1.71,0.158,0.771,1.709,0.815,2.67C646.545,123.199,644.691,107.043,648.779,130.83z M576.865,145.189
		c-1.459,3.437,0.584,9.296-1.651,19.34c-1.515,6.809,5.553,1.514,19.947,8.451c6.734,3.246,13.666,6.642,16.094,14.155
		c2.361,7.305,4.346,14.998,1.618,22.836c-0.396,1.137-0.994,2.44,0.533,3.2c11.796,5.868-3.073-16.555,9.504-10.462
		c6.646,3.22-5.479,14.19,4.601,15.291c2.724,0.298,1.108-1.859,1.231-2.819c0.974-7.59-3.19-10.694,5.003-9.57
		c7.864,1.078-4.666,15.606,5.483,14.289c2.326-0.302,2.808-0.841,2.679-2.929c-0.621-10.017-0.137-10.682,2.736-10.855
		c7.527-0.455,3.99,0.761,4.037,9.195c0.006,1.051-0.835,2.799,1.179,2.822c1.647,0.019,2.655-1.066,2.544-2.879
		c-0.603-9.844-1.349-9.389,6.057-12.14c8.431-3.132-2.337,15.062,4.124,12.075c3.58-1.655,0.325-9.291,1.178-15.068
		c2.398-16.24,15.761-13.741,36.33-25.48c2.899-1.655,2.014-0.342,2.014-30.439c-1.515,0.559-1.618,9.371-4.003,12.819
		c-16.637,24.043-41.612,7.532-43.006-7.179c-0.755-7.967-6.091-9.87-5.48-4.26c0.553,5.079,0.444,10.194,1.274,15.273
		c2.36,14.438-11.494,9.349-14.369,8.806c-6.607-1.249-7.682-2.671-6.983-9.455c1.692-16.401,2.179-18.465-0.643-17.981
		c-1.803,0.309-4.163-2.259-5.492,1.387c-4.57,12.538-18.41,22.791-30.461,17.328C585.828,157.713,581.222,152.033,576.865,145.189z
		 M579.553,181.32c-0.574,5.807,3.507,22.093-2.428,38.186c-0.718,1.946-1.257,0.525,5.778,6.988
		c21.438,19.693,19.565,16.056,28.328,32.703c0.789,1.5,1.237,3.604,4.159,3.011c9.286-1.884,18.391,0.789,27.571,1.578
		c24.503,2.106,2.874-2.103,41.865-31.065c9-6.685,2.652-8.116,7.109-37.038c0.211-1.366,1.469-3.209,0.093-3.998
		c-1.406-0.806-2.851,0.908-4.2,1.686c-1.789,1.032-1.873,1.596-4.684,19.15c-1.283,8.011-11.063,25.028-18.649,22.188
		c-1.607-0.602-1.028-0.894-0.209-10.59c-8.316,2.45,0.495,11.478-5.797,11.984c-5.743,0.462-5.692,0.69-5.755-4.957
		c-0.013-1.133,0.631-2.58-0.779-3.321c-1.478-0.777-3.166-0.056-4.158,0.677c-3.296,2.436,4.434,10.162-4.2,9.004
		c-7.924-1.063,1.198-10.128-6.401-10.055c-2.444,0.024-3.597,0.766-3.249,3.494c0.753,5.907,0.657,5.703-5.06,5.739
		c-5.968,0.038,0.812-11.503-4.044-10.982c-4.182,0.449,5.518,14.745-8.984,8.958c-3.696-1.475,4.041-11.226-4.163-14.496
		c0.54,11.51,1.864,14.55-2.736,12.124c-6.266-3.305-12.949-5.498-16.901-12.6c-4.718-8.478-7.307-17.324-7.007-26.701
		C585.215,187.891,583.602,184.735,579.553,181.32z M885.659,899.674c4.514,32.694-15.237,103.934-17.184,184.774
		c-0.151,6.27-1.907,12.582-1.446,18.765c0.615,8.249-0.6,16.286-0.963,24.417c-1.341,30.073-5.415,7.871,3.153,62.626
		c0.915,5.85,2.425,11.599,2.818,17.562c3.095-3.541-7.796-61.625,0.136-72.642c3.305-4.59,6.005-9.59,9.05-14.288
		c4.548-7.017,15.607-16.933,14.327-19.702c-9.569,6.856-15.836,16.653-23.623,25.626c-3.15-20.773,18.716-184.115,19.696-214.509
		C891.761,907.977,889.977,902.544,885.659,899.674z M320.947,876.479c-3.59-8.089-2.457-14.069-11.518-6.641
		c-12.846,10.531-90.134,48.561-104.369,57.035c-16.351,9.734-34.245,16.23-51.834,23.313c-3.304,1.331-8.606,0.83-9.64,3.732
		c-0.981,2.754,1.881,6.773,2.717,10.315c0.615,2.606,1.41,2.403,3.387,1.16c21.744-13.669,36.82-18.888,49.942-27.957
		c27.269-18.846,106.344-55.107,119.685-59.254C320.044,877.957,321.186,878.116,320.947,876.479z M392.048,1216.531
		c0.247-0.129,0.494-0.257,0.741-0.386c-0.455-1-135.403-253.91-146.734-284.277c-1.623-4.35-3.98-1.388-5.585-0.788
		c-6.429,2.401-9.08-9.764,143.852,272.477C386.718,1207.979,389.463,1212.211,392.048,1216.531z M170.595,830.834
		c18.514-5.368,28.59-5.892,23.789-10.429c-6.235-5.891-5.906-14.472-9.018-21.621c-1.197-2.75,1.551-3.225-23.187,9.802
		c-1.228,0.647-0.936,1.46-0.328,2.407c3.469,5.409,5.216,11.471,6.536,17.671C168.667,829.985,168.805,831.137,170.595,830.834z
		 M847.27,1573.939c8.596,1.686,14.693,1.08,20.115-8.25c1.978-3.403,2.773-1.658-23.51-18.969
		c-1.982-1.305-4.063-4.147-6.109-3.147C836.292,1544.294,835.888,1571.707,847.27,1573.939z M309.434,987.489
		c-1.49-29.693,0.886-59.29,0.306-89.053c-5.834,2.739-6.287,2.607-5.833,3.775C309.005,915.34,295.597,964.345,309.434,987.489z
		 M1044.989,800.697c-0.118,4.427,3.813,1.599,6.778,1.145c5.466-0.837,3.054-2.063-6.818-32.506
		c-3.16-9.743-8.731-24.258-10.127-52.054c-0.128-2.538-0.706-2.144-2.551-1.594
		C1022.313,718.658,1045.771,771.257,1044.989,800.697z M860.294,1538.227c-1.15,0.521-1.479,1.456-1.844,2.363
		c-0.612,1.52,0.31,2.079,1.47,2.808c26.869,16.879,30.52,26.051,52.35,44.257c14.488,12.082,17.656,26.352,20.939,21.297
		c1.032-1.589,6.257-2.198,2.182-5.982c-1.004-0.932-14.42-15.442-40.546-36.884
		C865.685,1542.152,872.697,1551.271,860.294,1538.227z M423.922,1492.148c-0.151-1.988,0.047-2.995-0.968-3.362
		c-0.907-0.328-1.187,0.552-1.632,1.107c-22.213,27.731-27.789,33.79-51.667,80.462c-2.378,4.649,2.726,3.476,4.263,4.848
		c2.722,2.431,2.877-2.95,10.113-20.036c1.556-3.673,20.816-41.234,24.401-45.608c4.521-5.518,9.304-10.823,14.064-16.141
		C423.17,1492.665,423.918,1492.104,423.922,1492.148z M431.4,1497.604c-2.524,1.449-4.239,2.914-5.455,4.919
		c-26.554,43.78-20.701,37.493-15.383,35.663c5.182-1.784,14.31,1.121,18.262-23.023
		C429.778,1509.325,430.55,1503.458,431.4,1497.604z M1077.811,690.588c-11.164,10.636-12.993,10.474-8.513,13.167
		c1.001,0.602,24.533,12.613,31.524,21.977c5.124,6.865,5.401,2.546,9.9,0.549c5.486-2.436-6.209-4.459-14.039-10.417
		C1088.033,709.284,1079.758,702.614,1077.811,690.588z M1046.616,711.988c-2.343,0.344-4.045,0.198-2.971,3.508
		c3.071,9.462,20.977,68.171,21.156,79.959c0.034,2.206,1.711,2.141,2.778,1.433c1.603-1.063,5.867,0.391,4.538-3.47
		c-9.452-27.457-7.274-8.822-23.813-79.875C1048.034,712.378,1047.467,711.836,1046.616,711.988z M269.765,848.136
		c1.163,6.045-2.166,4.133-20.66,19.129c-25.2,20.433-48.902,22.959-42.363,27.617c1.904,1.356,2.962,5.677,6.443,2.395
		c19.213-18.113,10.329-5.865,59.392-43.172c1.634-1.242,2.856-2.403,0.351-4.034C272.038,849.49,271.478,848.419,269.765,848.136z
		 M196.308,885.345c0.508-0.292,0.897-0.392,1.085-0.642c14.908-19.906,71.119-35.21,65.028-43.195
		c-1.318-1.728-1.7-0.208-2.658,0.495c-13.347,9.796-24.647,14.061-33.294,18.775c-9.208,5.021-17.464,11.842-27.831,14.724
		c-1.567,0.436-2.875,1.795-4.311,2.715C192.065,879.665,193.768,881.363,196.308,885.345z M186.233,866.988
		c6.644-5.968,41.706-25.639,62.525-31.595c1.833-0.524,5.557-0.852,4.958-2.942c-0.941-3.28-4.662-0.987-6.226-0.397
		c-10.85,4.097-21.701,8.325-32.111,13.412c-8.522,4.164-16.535,9.225-25.853,11.779
		C182.782,859.092,182.576,860.493,186.233,866.988z M354.17,1584.918c-6.084,10.307-17.343,12.612-26.91,17.932
		c6.894,8.171,23.179-0.051,32.323-5.493C361.388,1596.284,360.978,1596.575,354.17,1584.918z M1116.311,752.317
		c0.354,8.876,0.353,8.874,8.202,5.969c1-0.37,4.924-1.044,2.242-3.635c-4.822-4.659-5.309-22.974-5.388-23.975
		c-0.487-6.118-6.122,2.711-8.264,4.823C1108.965,739.579,1117.555,745.862,1116.311,752.317z M175.862,844.52
		c0.056,12.629,8.84-3.486,64.4-17.822c0.952-0.246,2.651,0.003,2.302-1.589c-1.821-8.282-41.584,16.705-65.119,17.63
		C176.16,842.789,175.652,843.271,175.862,844.52z M1056.659,707.755c23.661,71.017,23.447,70.785,23.79,79.296
		c0.061,1.514,0.106,3.547,2.69,2.591c1.812-0.67,4.489-0.656,3.201-3.951c-2.216-5.669-3.827-11.642-6.623-17.002
		C1069.025,748.195,1065.296,715.698,1056.659,707.755z M983.878,1619.649c0.701-0.78,2.462-0.891,2.236-2.094
		c-0.24-1.275-1.971-1.532-3.012-1.606c-25.449-1.824-26.063-4.538-26.411,0.109c-0.552,7.364-0.618,7.374,6.875,7.779
		C975.726,1624.493,980.301,1623.63,983.878,1619.649z M1144.24,830.064c-3.44-2.266-12.966-13.865-22.982-22.927
		c-5.496-4.973-10.427-10.093-12.504-17.41c-1.601-5.64-7.035-1.101-4.09,1.962c3.831,3.985,3.956,10.845,7.99,14.571
		c8.212,7.585,17.908,13.548,24.858,22.494C1139.249,830.989,1141.129,831.288,1144.24,830.064z M151.103,756.95
		c-2.142,6.996-0.792,13.843-0.063,20.662c0.218,2.041,1.566,0.861,2.439,0.488C167.968,771.907,176.059,773.236,151.103,756.95z
		 M843.296,1494.754c0.099-2.214-0.913-2.743-2.921-2.274c-10.113,2.361-7.934,1.312-8.916,18.915
		c-0.315,5.643,10.36,4.125,11.255-3.165C843.405,1502.602,843.214,1496.599,843.296,1494.754z M1098.459,847.265
		c-17.677-14.102-17.363-14.54-20.956-15.995c-9.56-3.871-15.291-13.773-16.568-18.828c-0.263-1.04-0.583-2.622-2.327-2.24
		c-8.089,1.769-4.864,2.153-3.17,4.72c3.06,4.638,7.119,8.662,8.781,14.159c1.805,5.973,13.794,3.124,29.48,15.831
		C1095.047,846.004,1095.985,847.776,1098.459,847.265z M865.441,1512.988c-3.643-26.271-2.481-24.389-4.758-23.78
		c-7.993,2.138-4.842-2.155-3.08,24.347c0.369,5.545,0.129,5.468,5.533,4.884C867.683,1517.947,863.968,1514.581,865.441,1512.988z
		 M173.681,781.876c-3.823,0-16.45,6.3-19.823,7.978c-0.668,0.333-0.587,7.614,0.063,7.899c0.503,0.221,1.305,0.297,1.746,0.042
		c8.158-4.713,23.333-8.513,21.728-12.869C176.696,783.03,176.078,781.067,173.681,781.876z M1089.162,801.846
		c1.788,4.138,5.268,7.298,6.705,11.657c0,0,14.894,8.373,29.279,21.352c1.169,1.055,1.596,4.389,3.671,2.758
		c2.084-1.637-10.459-9.569-19.683-18.426c-6.113-5.869-13.377-11.151-14.178-20.76
		C1094.61,794.273,1086.749,796.261,1089.162,801.846z M395.956,1508.164c-3.723,0.463-10.885,11.269-18.763,22.158
		c-27.861,38.51-28.565,35.452-25.091,38.867c4.503,4.426,6.11-11.09,20.205-29.799
		C380.163,1528.961,388.071,1518.57,395.956,1508.164z M1074.946,804.02c-0.699-0.192-1.784,0.556-2.504,1.473
		c-0.732,0.933,0.264,1.887,0.813,2.555c4.712,5.73,4.999,12.989,9.4,14.113c6.938,1.772,12.702,5.875,18.363,10.089
		c9.61,7.153,11.748,12.983,14.319,10.341c2.136-2.195-13.598-12.468-16.088-14.07c-9.181-5.908-19.783-10.475-21.362-23.321
		C1077.68,803.509,1076.417,804.467,1074.946,804.02z M384.287,1509.355c-21.52,17.967-16.421,17.268-27.918,28.565
		c-1.933,1.899-19.142,19.481-17.299,21.757c0.637,0.787,1.04,2.231,2.336,2.032c1.362-0.209,1.625-1.693,2.236-2.717
		c8.966-15.021,8.543-10.88,14.165-18.808C374.918,1516.055,379.538,1519.884,384.287,1509.355z M696.595,143.528
		c-10.6,10.509-21.291,11.238-32.577,1.108c2.456,7.55,13.227,13.977,17.04,13.589C689.183,157.397,695.092,152.171,696.595,143.528
		z M1073.408,719.748c15.548,35.002,20.59,45.029,24.098,59.168c0.327,1.319,0.728,2.489,2.358,1.979
		c7.027-2.199-4.203-7.349-18.995-51.354C1079.624,725.84,1079.049,721.1,1073.408,719.748z M586.06,137.324
		c3.775,19.37,24.492,17.028,29.047,1.262C605.025,147.227,595.543,148.162,586.06,137.324z M1133.533,767.881
		c0.149-2.355-0.119-2.621-2.424-1.824c-10.591,3.664-9.99,3.8-9.004,5.895c2.587,5.493,10.845,16.969,10.887,10.178
		C1133.021,777.374,1132.484,772.598,1133.533,767.881z M855.211,609.262c3.699-12.99,7.854-25.782,12.444-38.459
		c-4.339,3.402-6.728,15.965-12.433,24.296C852.025,599.768,851.066,604.167,855.211,609.262z M1024.935,694.37
		c-1.238-3.384-3.816-5.658-6.381-7.792c-0.877-0.729-2.14-4.04-3.672-1.106c-1.265,2.422-5.056,4.659-2.325,8.089
		c2.03,2.55,4.621,4.651,6.927,6.988C1021.698,702.792,1021.572,701.754,1024.935,694.37z M365.933,1516.488
		c-22.578,16.302-25.31,20.618-36.591,33.168c-0.888,0.988-1.47,2.23-0.202,3.198c1.319,1.008,10.035-11.296,19.179-19.492
		C354.362,1527.944,360.993,1523.146,365.933,1516.488z M1026.612,668.197c-1.908,0.797-4.225,4.415-2.119,6.048
		c2.852,2.211,6.427,4.013,8.003,7.212c2.172,4.411,3.815,4.288,7.419,1.408c6.084-4.862-5.146-3.526-10.611-11.378
		C1028.491,670.32,1027.501,669.274,1026.612,668.197z M1037.051,704.121c4.13,0.693,6.551-2.646,9.6-4.174
		c15.772-7.906,12.095-7.537,10.264-11.442c-1.316-2.805-2.85,0.583-17.595,12.067
		C1038.051,701.561,1037.382,702.598,1037.051,704.121z M863.823,565.712c-5.761,2.261,0.373,1.205-18.193,21.701
		c-1.468,1.62-1.454,2.831-0.572,4.501c0.363,0.688,0.25,2.161,1.346,1.656c1.33-0.613,2.706-1.447,3.326-3.079
		C852.88,582.195,855.237,583.85,863.823,565.712z M201.295,905.729c-2.84-2.547-3.186-3.651-5.881-0.67
		c-3.072,3.398-6.226,6.46-11.076,7.163c-1.078,0.156-3.094,0.371-2.629,2.313c0.415,1.734,0.142,4.21,1.728,5.01
		c2.228,1.124,1.103-2.129,2.461-2.672c0,0,5.598-6.086,13.474-9.12C200.147,907.454,201.468,907.479,201.295,905.729z
		 M341.85,1582.885c-8.081,0.228-16.582,5.284-23.226,9.921c-1.025,0.715-0.689,2.435,0.729,1.85
		C327.185,1591.423,334.75,1587.667,341.85,1582.885z M184.827,888.641c-0.898,1.172-4.701,6.813-7.412,7.814
		c-5.464,2.017-5.419,2.139-3.001,7.572C185.359,890.778,191.213,895.26,184.827,888.641z M400.511,1470.579
		c0.214-3.483-3.008-2.889-4.939-3.818c-3.556-1.711-1.954,1.444-1.225,10.652c0.118,1.484,0.668,1.851,1.754,0.884
		C398.376,1476.271,400.608,1474.168,400.511,1470.579z M157.974,874.643c2.243-6.324,7.678-11.211,10.687-13.211
		c1.891-1.257,0.759-2.82,0.405-4.279c-0.17-0.701-0.468-1.635-1.309-1.515c-1.577,0.224-1.325,1.808-1.773,2.869
		C161.227,869.776,154.355,865.517,157.974,874.643z M428.457,1478.513c-3.879-1.198-7.745-2.44-11.644-3.572
		c-1.627-0.472-3.852-3.15-4.787-0.581C410.881,1477.508,417.359,1482.422,428.457,1478.513z M946.901,1608.443
		c-9.319,10.686-9.46,9.957-2.847,11.26c2.213,0.436,2.996-0.464,3.172-2.3C947.491,1614.647,947.871,1611.87,946.901,1608.443z
		 M165.719,888.138c3.699-2.984,5.632-8.008,10.458-10.044c3.052-1.288,0.178-6.212-2.577-2.618
		C167.911,882.897,161.785,883.042,165.719,888.138z M960.446,1601.774c2.852,3.437,11.292,3.978,17.945,5.276
		C979.965,1607.357,983.757,1603.56,960.446,1601.774z M330.463,1573.881c-7.935-0.97-17.922,7.47-18.592,8.984
		c-0.855,1.93,0.511,3.558,2.035,1.453C317.901,1578.798,324.288,1577.096,330.463,1573.881z M317.927,1565.368
		c-4.892-0.473-7.702,2.638-10.997,4.517c-1.427,0.814-0.544,2.163,0.083,3.207c0.757,1.26,1.547,0.384,2.012-0.195
		C311.392,1569.952,314.76,1568.196,317.927,1565.368z M606.364,202.121c-0.123-1.013,0.974-3.67-1.497-3.861
		c-2.003-0.155-1.915,0.539-2.191,7.068c-0.067,1.58,0.828,2.696,2.275,2.784c1.533,0.093,1.043-1.592,1.347-2.458
		C606.6,204.793,606.364,203.743,606.364,202.121z M924.808,1566.138c4.115,3.172,8.224,6.301,11.99,9.847
		c1.659,1.562,2.474-0.633,1.306-1.594C934.055,1571.063,930.416,1567.091,924.808,1566.138z M364.844,1583.942
		c-2.823,0.009,1.029,4.146,4.454,6.964c1.313,1.08,1.837-0.642,2.279-1.494C373.063,1586.544,374.432,1587.524,364.844,1583.942z
		 M957.289,1593.584c4.444,2.179,9.041,1.585,13.666,0.399C966.477,1592.722,961.992,1591.659,957.289,1593.584z M676.225,200.584
		c-4.853,0.457-4.902,3.569-4.873,6.708c0.02,2.197,1.279,1.768,2.068,0.735C675.018,205.932,675.011,203.291,676.225,200.584z
		 M595.628,196.429c-0.596-1.705,0.717-5.149-1.981-5.159c-1.972-0.007-0.103,3.045-0.497,4.678
		c-0.264,1.093-1.286,2.881,0.486,4.293C595.772,201.943,595.763,199.133,595.628,196.429z M840.96,1526.929
		c-0.806,0.243-2.354-0.4-2.17,1.448c0.113,1.132,0.199,3.011,1.634,2.697c1.396-0.305,3.24-1.608,3.577-2.834
		C844.327,1527.057,842.236,1527.154,840.96,1526.929z M603.409,225.747c0.319-0.011,0.638-0.022,0.957-0.032
		c0-8.544,0.326-9.739-1.211-9.696C601.665,216.06,602.16,217.052,603.409,225.747z M961.063,1584.663
		c-3.05-3.005-6.009-1.009-8.889-0.59C954.96,1585.528,957.845,1585.007,961.063,1584.663z M318.86,1555.42
		c-3.567-2.151-5.537-1.745-7.482,1.473C313.838,1556.729,316.23,1556.737,318.86,1555.42z"/>
	<path fill="#1d3557" d="M101.05,671.737c0.969,2.069,0.999,3.629,0.784,5.222c-4.53,33.543-2.859,331.864-2.859,331.864
		c-3.203-6.162-6.115-12.078-10.923-16.909c9.172,24.161,10.989,23.957,10.901,48.481c-0.076,21.164-3.145,42.398,1.025,63.501
		c0.269,1.363,0.035,2.825-0.242,4.352c-2.756-8.244-8.612-14.523-13.573-21.462c24.588,64.11,10.297,50.019,16.881,120.841
		c3.003,32.309,10.32,186.881-0.619,213.299c-2.005-5.28-2.857-10.559-7.661-15.088c12.765,27.182,0.528,43.937-8.055,72.667
		c-2.348,7.861-28.101,38.812-57.588,51.51c-3.132,1.348-3.283,0.214-2.944-2.41c4.392-34.057,11.168-9.984,7.383-233.344
		c-3.834-226.216,1.087-125.979,6.95-175.227c-3.096,3.35-4.098,7.996-7.098,11.423c-1.266-0.574-1.417-1.659-1.28-2.478
		c1.361-8.135-0.782-16.184-0.589-24.318c0.11-4.654,2.99-8.892,1.509-13.614c4.624-2.634,3.645-7.635,4.802-11.683
		c0.746-2.612,1.176-5.389,0.111-8.431c-5.144,12.359-4.937,12.798-6.564,12.574c-3.272-0.45-5.083-72.293-7.333-89.624
		c-0.381-2.935-2.937-35.633,4.98-57.481c2.374-6.55,2.579-13.262,4.06-19.887c-3.873,4.622-5.34,10.33-7.213,16.071
		c-2.188-2.856-0.735-5.592-0.601-8.125c0.662-12.553-0.893-25.322,2.834-37.583c1.252-4.12,5.279-10.003,4.229-16.97
		c-4.677,4.607-4.109,9.671-6.519,8.911c-1.298-0.409-0.837-137.577-0.252-138.579c1.49-2.551,5.92-1.866,9.04-2.675
		C56.999,730.761,87.076,706.216,101.05,671.737z"/>
	<path fill="#1d3557" d="M146.976,391.963c-11.751,55.01-21.418,109.834-40.569,162.525c-0.372-3.397-0.744-6.793-1.116-10.19
		c-0.356,23.526-12.119,41.666-26.885,59.725c-0.531-4.707-0.931-8.259-1.353-12.002c-1.554,0.98-0.974,2.289-1.027,3.385
		c-0.479,9.88-4.979,17.033-13.519,22.279c-2.376,1.46-17.748,10.839-22.708,10.637c-3.092-0.126-6.075,0.168-8.731,1.97
		c-2.184,1.481-2.695-0.065-2.544-1.685c0.003-0.032,1.294-45.816,3.117-73.238c2.073-31.172,3.206-6.561,12.795-30.424
		c-2.565,0.79-3.282,2.064-8.341,8.333c-0.643,0.797-0.855,2.46-2.22,1.946c-1.237-0.467-0.618-1.974-0.488-2.933
		c0,0,5.82-44.106,5.827-44.155c1.048-7.443,3.975-14.541,4.335-22.145c0.054-1.146,0.871-1.75,2.052-1.508
		c8.735,1.791,16.696-1.84,25.004-3.31c11.692-2.068,19.949-10.353,30.032-15.267c11.177-5.448,17.445-16.099,25.918-24.384
		c7.695-7.523,12.949-16.945,17.794-26.522C144.812,394.087,144.929,392.89,146.976,391.963z"/>
	<path fill="#1d3557" d="M46.001,455.133C62.306,354.384,76.02,332.27,86.934,294.945c1.042-3.565,3.686-0.594,16.068,0.009
		c31.356,1.528,27.911-7.49,43.808-0.247c20.891,9.519,25.629,7.605,24.26,11.869c-17.481,54.429-29.165,99.504-76.938,134.142
		c-21.364,15.49-37.204,10.703-45.23,14.584C47.552,455.955,45.988,456.247,46.001,455.133z"/>
	<path fill="#1d3557" d="M1070.764,532.967c2.633,36.87,6.186,91.803,19.217,126.076c0.3,0.79,0.974,1.633,0.274,2.371
		c-0.709,0.748-1.551,0.022-2.309-0.246c-5.966-2.11-51.524-5.394-72.95-62.454c-8.913-23.735-18.93-77.626-19.439-87.911
		c-0.374-7.563-2.547-20.699-3.833-22.955c-1.136-1.992-3.592-4.64-2.081-6.147c10.474-10.451,25.552-2.2,47.063-16.815
		c3.511-2.386,1.647-0.557,21.958,3.911c1.372,0.302,2.493,0.397,2.646,2.293C1062.229,482.54,1070.933,520.155,1070.764,532.967z"
		/>
	<path fill="#1d3557" d="M159.663,619.546c-0.227-4.206-0.428-7.924-0.629-11.643c-2.865,4.445,3.098,7.869-12.026,25.1
		c-6.358,7.244-15.541,9.01-22.65,14.438c0,0-11.132,1.724-17.108,6.459c0.668-5.237,2.173-9.625,3.409-13.939
		c5.166-18.03,24.28-176.208,29.896-177.528c18.465-4.341,23.825-11.466,29.519-9.115c21.318,8.802,28.113,3.794,29.562,10.621
		c1.94,9.146,10.345,9.673,8.208,18.627c-3.262,13.666-0.139,20.048-11.287,61.706c-9.56,35.721-19.374,53.03-28.564,66.082
		C165.693,613.623,163.622,617.06,159.663,619.546z"/>
	<path fill="#1d3557" d="M1062.73,418.312c18.866,24.435,46.409,38.195,73.541,39.78c2.252,0.132,3.707,0.899,4.321,3.756
		c11.916,55.453,10.5,102.4,15.391,122.209c2.171,8.794,1.096,17.932,2.536,26.824c0.363,2.242-1.018,2.386-2.754,1.801
		C1080.878,587.457,1066.771,497.095,1062.73,418.312z"/>
	<path fill="#1d3557" d="M1134.891,453.084c-55.165-10.459-69.829-28.391-93.795-103.67c-0.32-1.004-12.868-42.196-13.96-44.071
		c-3.046-5.227,7.156-0.367,22.407-14.255c1.281-1.167,2.693-1.586,4.376-1.031c10.445,3.449,21.41,3.051,32.15,4.315
		c4.548,0.535,6.936-4.4,9.996,5.176c1.96,6.133,16.714,42.432,38.766,132.2c1.502,6.114,1.724,12.674,3.276,18.916
		C1138.877,453.764,1136.382,452.699,1134.891,453.084z"/>
	<path fill="#1d3557" d="M154.297,656.753c-5.457-0.954-10.102-3.965-14.636-6.948c-1.89-1.243-0.049-2.26,0.955-3.005
		c6.514-4.833,22.913-15.64,33.717-31.603c26.969-39.848,35.797-80.224,43.526-127.084c0.352-2.133-0.589-5.183,4.091-2.529
		c5.853,3.319,13.003,3.798,19.624,5.385c0.791,0.19,1.744-0.248,2.362,0.614c3.779,5.268,9.647,8.136,14.382,12.316
		c11.641,10.277,17.65,7.59,15.908,13.549c-5.231,17.899-10.957,42.331-21.806,63.985
		C228.231,629.712,204.041,665.447,154.297,656.753z"/>
	<path fill="#1d3557" d="M94.157,288.002c-2.431,0.007-3.633-0.455-2.553-3.414c18.542-50.806,50.07-96.116,63.772-112.556
		c3.555-4.265,2.679,2.77,23.06,6.661c26.33,5.027,23.35,2.676,33.04,9.825c6.157,4.543,11.075,11.095,19.273,12.576
		c2.169,0.392,1.159,1.694,0.45,2.682C165.473,295.512,129.795,287.896,94.157,288.002z"/>
	<path fill="#1d3557" d="M1052.947,406.324c0.083,11.229,8.312,32.869,5.519,49.794c-0.301,1.821,1.728,4.119-0.073,5.338
		c-1.553,1.051-3.708-0.627-5.636-0.786c-19.073-1.577-31.979-13.568-44.63-26.154c-16.108-16.025-23.221-27.327-35.958-57.305
		c-12.271-28.88-11.06-35.469-12.196-41.056c-2.764-13.599,2.445-1.329,37.586-22.473c3.856-2.32,8.114-4.01,11.395-7.246
		c1.679-1.656,4.015-0.659,5.949-1.382c3.282-1.227,3.142,1.947,4.022,3.443c17.392,29.555,20.019,67.297,32.371,90.02
		C1052.701,401.1,1053.598,403.614,1052.947,406.324z"/>
	<path fill="#1d3557" d="M989.224,238.271c-11.081-12.233-22.815-35.673-22.815-35.673c-1.49-1.688-0.141-2.66,1.478-2.974
		c9.801-1.903,17.174-8.142,24.838-13.847c3.477-2.588,7.796-4.058,10.375-7.865c0.513-0.756,1.525-0.546,2.397-0.472
		c21.019,1.77,27.245-9.128,30.673-3.326c18.351,31.061,43.612,74.815,54.597,109.191c0.861,2.694,0.079,4.583-3.282,4.445
		C1062.543,286.722,1040.237,294.586,989.224,238.271z"/>
	<path fill="#1d3557" d="M963.233,461.616c-11.014-6.837-24.854-16.318-49.963-51.366c-5.662-7.904-8.88-19.148-12.539-25.346
		c-2.653-4.492-1.936-5.783,1.292-10.061c11.569-15.333,30.618-11.025,47.271-33.131c8.781-11.656-1.132,3.214,31.231,65.63
		c8.674,16.728,28.876,41.031,49.273,51.39c0.888,0.451,1.833,0.866,1.785,2.06c-0.048,1.191-1.236,0.991-1.912,1.388
		C1013.773,471.503,986.527,476.075,963.233,461.616z"/>
	<path fill="#1d3557" d="M1079.717,547.576c6.497,15.534,21.825,38.096,40.753,53.41c10.383,8.401,31.351,18.454,35.417,18.697
		c1.781,0.106,3.252,0.912,3.249,2.753c-0.023,11.635,1.913,23.142,2.15,34.76c1.354,66.236,2.949,67.889-1.904,65.483
		c-20.875-10.347-46.513-18.381-63.182-61.94C1076.343,608.852,1080.315,551.652,1079.717,547.576z"/>
	<path fill="#1d3557" d="M140.686,453.087c3.888-14.935,5.217-30.333,9.172-45.21c20.266-76.238,19.123-61.082,27.675-100.21
		c1.328-6.076,3.56,1.657,21.267,1.076c1.504-0.049,2.664-0.288,3.712,1.353c14.145,22.133,34.429,18.159,30.882,28.448
		c-3.888,11.28-6.347,23.011-10.778,34.142c-24.888,62.521-60.758,72.393-79.801,81.697
		C141.336,455.106,140.468,455.045,140.686,453.087z"/>
	<path fill="#1d3557" d="M67.788,692.597c-2.249,5.406,0.784,11.213-2.531,16.72c-2.145,3.562-4.388,6.911-7.743,9.008
		c-19.96,12.478-24.09,9.698-27.547,10.596c-5.963,1.548-5.014,5.514-5.019-37.456c-0.002-15.07,1.791-48.542,1.786-48.669
		c-0.373-8.816,7.165-2.868,27.947-11.701c38.37-16.309,52.936-62.846,62.768-80.149c-20.863,123.26-14.131,96.814-25.549,124.849
		c-6.72,16.501-21.091,30.93-22.032,30.757c-1.215-0.223-0.74-1.369-0.772-2.12C68.928,700.447,67.399,696.631,67.788,692.597z"/>
	<path fill="#1d3557" d="M170.258,299.393c-10.53-2.392-21.973-8.932-22.064-11.595c0,0,56.111-21.159,87.108-80.851
		c0.934-1.799,1.867-2.27,3.69-1.403c20.428,9.716,24.146,0.978,29.414,9.367c6.472,10.305,14.327,19.363,24.987,25.605
		c2.067,1.21,0.395,2.067-0.197,2.736c-13.952,15.756-40.904,46.195-68.56,52.897c-8.58,2.079-16.88,5.275-25.844,5.535
		C190.045,301.938,189.916,303.858,170.258,299.393z"/>
	<path fill="#1d3557" d="M986.184,476.284c-36.662,21.576-71.031,17.184-102.662-7.699c-12.884-10.135-40.728-36.264-32.991-43.578
		c4.645-4.391,6.586-10.181,8.026-16.032c1.71-6.949,8.316-2.514,27.149-17.914c3.205-2.62,7.792-9.174,9.24-5.662
		c5.833,14.143,36.97,73.584,80.708,88.633C978.983,475.177,982.718,474.006,986.184,476.284z"/>
	<path fill="#1d3557" d="M166.428,168.673c-6.641-1.804-6.931-2.127-2.53-7.53c9.819-12.052,19.206-24.435,29.972-35.751
		c36.379-38.233,35.014-35.667,37.515-31.716c3.219,5.084,8.573,8.138,13.19,11.901c14.728,12.005,32.837,15.129,50.425,19.662
		c0.711,0.183,1.735,0.06,1.627,0.888c-0.426,3.254,1.822,6.511-1.579,9.809c-23.248,22.547-48.262,33.342-59.434,35.898
		C200.49,179.869,190.327,175.166,166.428,168.673z"/>
	<path fill="#1d3557" d="M174.337,448.101c0,0,19.679-12.38,33.814-29.635c18.024-22.002,29.083-64.633,32.289-74.33
		c1.495-4.521-0.5-6.885,2.763-7.575c3.496-0.739,6.382-0.532,9.091,3.396c5.906,8.565,14.895,13.946,23.509,19.549
		c13.254,8.621,20.373,5.955,22.308,14.791c1.395,6.369-30.782,64.643-76.47,75.498
		C214.867,451.404,174.623,453.505,174.337,448.101z"/>
	<path fill="#1d3557" d="M285.314,516.341c3.825,8.718,12.231,10.462,19.063,14.38c9.747,5.59,12.258,3.345,11.583,8.807
		c-1.078,8.729-3.448,17.02-6.846,25.191c-20.973,50.425-9.088,54.58-44.146,80.33c-9.805,7.202-21.422,10.246-33.125,12.474
		c-7.794,1.484-15.611-0.111-23.289-1.964c-1.865-0.45-1.593-1.237-0.622-2.126c8.275-7.57,21.727-12.355,35.655-39.027
		c10.885-20.845,17.905-28.07,27.045-56.831C274.966,543.939,278.195,529.873,285.314,516.341z"/>
	<path fill="#1d3557" d="M997.639,304.955c-17.166,19.261-56.257,24.641-87.993,7.868c-6.93-3.663-38.725-19.354-45.795-34.617
		c-4.458-9.625,8.091-7.955,25.202-24.595c5.542-5.39,11.669-10.275,15.264-17.449c1.79-3.573,4.704-3.629,6.883-0.499
		c46.701,67.086,77.44,66.591,82.605,67.97C995.075,303.973,996.547,303.706,997.639,304.955z"/>
	<path fill="#1d3557" d="M1046.189,288.565c-10.773,8.335-38.461,18.486-68.433,3.28c-18.147-9.207-49.846-36.14-56.875-55.071
		c-1.975-5.319-8.096-6.322,1.089-10.284c8.664-3.737,15.759-9.697,19.918-18.009c3.379-6.752,9.089-5.934,14.565-6.956
		c2.728-0.509,3.825,0.063,5.191,2.891c13.422,27.791,33.809,48.88,48.529,62.926
		C1015.557,272.478,1039.181,286.178,1046.189,288.565z"/>
	<path fill="#1d3557" d="M304.027,386.381c7.626,8.535,14.397,20.074,33.84,24.914c17.97,4.474-34.6,63.365-91.092,72.501
		c-8.965,1.45-16.742-2.423-24.556-5.31c-4.438-1.64-8.43-5.287-10.633-10.067c-3.025-6.564-6.524-7.909,2.414-8.886
		c15.646-1.71,29.36-7.535,41.308-17.838c10.641-9.175,11.029-2.272,42.412-45.051C300.1,393.399,301.021,389.354,304.027,386.381z"
		/>
	<path fill="#1d3557" d="M222.456,319.5c-4.842-2.006-15.502-12.017-8.645-11.904c1.251,0.021,2.418-0.054,3.556-0.604
		c10.294-4.972,21.854-7.372,31.314-13.854c40.145-27.506,31.55-30.038,45.673-40.982c1.856-1.438,3.479-2.981,4.583-5.134
		c1.396-2.724,3.911-2.798,5.122,0.026c5.443,12.7,24.047,33.4,31.1,37.104c9.734,5.113-19.889,25.863-29.417,31.396
		c-12.322,7.156-25.745,9.458-39.391,11.487C244.595,330.272,245.679,329.118,222.456,319.5z"/>
	<path fill="#1d3557" d="M952.501,196.299c-4.261,1.642-10.323-0.139-16.37-0.073c-7.248,0.079-33.434-5.987-68.187-29.632
		c-2.225-1.514-1.561-2.813,0.141-3.917c19.775-12.834,19.605-11.594,22.073-14.28c7.054-7.676,14.235-15.222,18.86-24.773
		c1.409-2.909,4.299-3.218,6.547-1.042c29.021,28.09,13.851,16.201,55.554,43.745c6.432,4.248,15.563,9.349,23.248,9.735
		c0.794,0.04,1.819-0.274,2.091,0.915c0.185,0.81-0.28,1.346-0.885,1.855C983.601,188.876,970.097,195.226,952.501,196.299z"/>
	<path fill="#1d3557" d="M214.128,185.066c-1.233-0.582-2.998-0.843-2.808-2.303c0.173-1.334,2.091-1.415,3.271-1.465
		c30.802-1.304,74.697-26.284,82.425-38.826c4.686-7.606,3.567,7.105,20.968,18.118c4.633,2.932,9.446,5.889,14.846,7.504
		c1.284,0.384,2.663,1.043,3.12,2.364c2.821,8.163,10.112,12.164,5.301,14.108c-8.352,3.374-15.727,8.685-24.178,11.899
		C255.648,219.829,226.613,190.953,214.128,185.066z"/>
	<path fill="#1d3557" d="M934.219,133.449c-27.456-24.554-9.372-7.125,23.839-33.333c3.385-2.671,7.644-4.135,10.227-7.968
		c1.195-1.773,2.677-0.347,3.61,0.744c40.895,47.773,41.544,50.48,58.039,71.982c1.637,2.134,0.5,5.262-2.009,5.293
		C1012.549,170.36,988.55,182.038,934.219,133.449z"/>
	<path fill="#1d3557" d="M862.396,290.007c30.311,24.355,6.058,6.858,31.576,23.822c28.952,19.247,57.081,11.479,51.509,20.493
		c-9.721,15.727-29.272,24.342-47.404,26.614c-8.068,1.011-15.632-1.571-23.297-3.142c-20.767-4.255-35.37-20.579-42.232-23.068
		c-2.378-0.863-1.362-3.223,1.064-3.375C844.008,330.7,861,303.435,862.396,290.007z"/>
	<path fill="#1d3557" d="M282.766,355.456c-25.897-14.636-14.075-9.018-24.253-17.798c-3.594-3.1,11.349-1.452,21.367-3.874
		c12.352-2.987,24.226-7.155,34.671-15.067c6.862-5.198,14.505-9.391,21.299-14.794c1.835-1.459,3.188-4.812,5.56-3.992
		c1.6,0.553,2.27,3.762,3.384,5.767c6.989,12.586,26.35,25.57,36.407,28.187c1.624,0.423,2.072,1.097,0.317,2.32
		C359.106,351.83,328.139,381.099,282.766,355.456z"/>
	<path fill="#1d3557" d="M312.264,250.138c-0.674-1.207-2.042-3.07,0.946-2.723c21.656,2.517,36.68-5.499,66.668-19.295
		c5.656-2.602,5.432-2.7,8.42,2.882c6.288,11.748,13.879,22.33,26.367,28.371c2.623,1.269,3.203,9.481,1.055,11.871
		c-4.531,5.04-10.535,7.65-16.539,10.354C388.117,286.582,338.085,296.378,312.264,250.138z"/>
	<path fill="#1d3557" d="M825.336,211.006c17.413-7.925,29.175-21,35.533-38.986c0.889-2.516,1.143-3.541,4.364-1.404
		c43.114,28.613,35.369,19.89,62.083,30.931c6.836,2.825,14.579-1.493,11.846,3.824c-1.459,2.839-19.481,18.159-35.701,24.016
		C876.366,239.171,812.253,216.96,825.336,211.006z"/>
	<path fill="#1d3557" d="M790.92,275.34c-1.062-0.214-1.531-0.662-1.214-1.725c3.306-11.095-2.897-6.942,8.606-23.185
		c5.588-7.891,10.535-16.115,13.722-25.293c1.69-4.867-0.026-11.518,4.659-8.184c8.423,5.995,17.878,9.877,27.701,12.744
		c3.521,1.028,6.501,3.188,10.172,3.813c12.732,2.168,25.408,4.823,38.437,2.539c11.699-2.051-19.142,27.098-42.392,35.768
		C832.486,278.577,814.618,280.108,790.92,275.34z"/>
	<path fill="#1d3557" d="M355.476,362.316c7.86-3.061,14.186-8.883,21.613-12.773c2.115-1.108,3.681-4.537,5.552,1.025
		c1.889,5.615,14.78,22.239,25.109,25.142c4.854,1.364,0.695,6.537-0.777,7.684c-44.576,34.737-66.306,20.27-80.876,13.712
		c-5.472-2.463-8.814-7.408-13.654-10.582c-1.679-1.101-2.166-3.943-3.352-5.896c-1.006-1.657-2.28-3.149-3.34-4.776
		c-0.478-0.734-1.955-1.09-1.242-2.302c0.548-0.932,1.718-0.819,2.681-0.835C325.053,372.414,323.07,374.937,355.476,362.316z"/>
	<path fill="#1d3557" d="M306.022,239.942c-2.278-0.154-17.097-8.536-23.947-16.5c-22.456-26.108-6.667,2.955,43.268-24.682
		c37.344-20.668,8.527-5.735,53.953,14.852c2.108,0.955,2.995,2.387,0.837,4.11c-9.558,7.633-18.668,15.908-31.142,18.892
		C326.228,242.06,338.372,242.135,306.022,239.942z"/>
	<path fill="#1d3557" d="M402.766,328.718c-22.945,3.036-50.141-16.038-56.826-33.047c-4.818-12.26,2.347-6.299,4.527-5.835
		c25.787,5.487,41.639,3.616,66.103-10.211c1.544-0.872,2.305-0.849,3.035,0.821c5.906,13.514,23.986,29.189,31.561,32.862
		c4.335,2.101-5.492,5.344-27.043,13.872C417.25,329.898,409.886,328.601,402.766,328.718z"/>
</g>
</svg>
