<?xml version="1.0" encoding="utf-8"?>
<!DOCTYPE svg PUBLIC "-//W3C//DTD SVG 1.1//EN" "http://www.w3.org/Graphics/SVG/1.1/DTD/svg11.dtd">
<svg height="80px" width="180px" version="1.1" id="Layer_1" xmlns="http://www.w3.org/2000/svg" xmlns:xlink="http://www.w3.org/1999/xlink" x="0px" y="0px"
	 viewBox="400 1050 1800 550" enable-background="new 0 0 2031.7501 1454.2384" xml:space="preserve">
<g>
	<path fill="#1d3557" fillOpacity="1" d="M1300.1296,1462.2604c2.8022-10.5228,5.3118-20.1271,7.9232-29.7034c2.7162-9.9598,5.8784-19.7866,9.9952-29.2563
		c1.3741-3.161,0.8048-4.4817-2.3666-5.8934c-21.5885-9.6106-43.1561-19.2769-64.2549-29.9406
		c-7.2827-3.6809-14.4948-7.4867-21.17-12.2334c-3.1661-2.2512-4.7355-5.0344-5.278-9.0659
		c-4.1034-30.4966-3.9484-61.1542-3.9154-91.8147c0.0132-12.3171,0.0021-24.6344-0.6105-37.3134
		c-38.0343,47.6121-77.9569,93.376-121.8348,137.4005c-0.7521-7.9435-1.0475-14.8152-0.3318-21.621
		c1.5188-14.4396,1.1774-28.9406,1.832-43.4054c2.6624-58.8396,16.1375-114.7634,42.8044-167.5466
		c11.0699-21.9114,26.6899-39.627,44.6448-55.7899c25.9606-23.3696,53.8844-43.543,87.5558-54.454
		c18.9054-6.1262,38.2499-8.7175,58.1321-6.7709c8.0405,0.7872,16.2279-0.3215,24.2935,1.6124
		c-0.3186,2.6141-1.8728,4.4392-2.985,6.4353c-30.0259,53.8865-62.9713,105.9248-98.9972,156.0022
		c-1.7493,2.4316-2.8317,4.7361-2.3442,7.7866c0.9092,5.6912-1.4847,11.0341-2.0404,16.5828
		c-0.1395,1.3945-0.8552,3.2522-1.9244,3.9506c-8.5813,5.6061-6.3929,14.0551-5.9633,21.9636
		c1.2827,23.6107,2.771,47.2104,3.984,70.8245c0.1934,3.7627,1.7086,5.2286,5.2578,5.6841
		c5.6677,0.7275,10.5702-0.5929,14.6929-4.5646c9.4126-9.0677,10.4945-23.2712,2.4706-33.6031
		c-5.8365-7.5155-13.7284-12.5784-21.7227-17.3949c-2.8138-1.6953-3.2041-2.8597-1.3057-5.6437
		c4.1965-6.1531,5.9639-13.0808,4.1207-20.4399c-0.7782-3.1075,1.308-3.2836,2.9714-4.0879
		c11.5612-5.5906,21.4512-13.3434,29.9983-22.8939c1.6277-1.8187,2.5839-3.663,2.6968-6.1791
		c0.6515-14.4967,1.9485-29.1923,6.1494-42.8761c5.0684-16.5101,13.2511-31.8875,28.7448-41.9701
		c14.2217-9.2549,29.5588-12.6462,46.1896-10.4824c24.9568,3.2472,46.2946,15.106,66.9093,28.5815
		c3.3293,2.1764,6.575,4.481,10.3127,7.0364c-0.0016-4.9857-3.0636-7.9677-5.1885-11.5928c1.811-0.2859,2.7493,1.0669,3.8381,1.8514
		c14.2494,10.2675,27.6444,21.4478,38.0687,35.7944c14.833,20.4141,17.0287,41.6483,4.7058,64.1339
		c-6.4647,11.7965-14.6774,22.1659-23.7526,32.0029c-7.098,7.6936-14.9829,14.5142-22.8154,21.3774
		c-16.6387,14.5797-30.5471,31.3024-41.4663,50.5612c-4.5208,7.9736-9.4644,15.743-16.1218,22.1514
		c-2.2339,2.1504-1.4362,4.5353-1.7643,6.9115c-1.3052,9.4507,1.2294,15.3612,11.6213,18.4839
		c10.9385,3.2871,19.2213,11.6742,27.0181,20.0345c23.4657,25.1622,37.8195,55.3212,48.2239,87.6654
		c9.9927,31.0645,16.7229,63.0269,25.9978,94.2896c6.4961,21.8961,14.2124,43.3065,24.6442,63.6809
		c19.7698,38.6119,48.3362,69.1279,84.825,92.3772c2.9219,1.8619,5.8644,3.6917,10.1279,6.3733
		c-6.7479,0.5841-12.0844,1.1196-17.4319,1.4965c-30.9213,2.1796-61.8501,4.1469-92.8809,3.3301
		c-12.8335-0.3378-25.5845-1.8046-38.3734-2.6287c-13.6073-0.8768-27.2595-0.8779-40.7346-3.3745
		c-9.3271-1.7281-18.7604-2.9541-28.0096-5.0165c-16.9185-3.7723-33.834-1.8964-50.7535-0.6005
		c-11.4568,0.8776-22.8806,2.1821-34.3202,3.2865c-1.7538,0.1694-3.3884,0.7863-3.604-2.2991
		c-0.1049-1.4998-2.887-0.975-4.4645-1.0488c-17.6426-0.8264-35.2921-1.5085-52.9321-2.3855
		c-10.4795-0.521-20.9884-1.0326-31.3386-2.8156c-8.9128-1.5355-17.0818,2.0406-25.5963,3.1193
		c-17.4125,2.2058-34.8303,3.3317-52.3389,2.0063c-3.6913-0.2794-5.297,0.4363-4.6963,4.3781
		c0.6561,4.3055-1.1483,5.6523-5.6228,5.4629c-17.3743-0.7356-34.5386,2.374-51.8274,3.3832
		c-9.7106,0.5669-19.2983,0.0479-28.8571-1.661c-3.2875-0.5878-4.4242-1.7617-3.1411-5.3553
		c3.366-9.4268,7.9276-12.9445,18.0432-13.474c11.9806-0.6271,23.9351-1.567,35.5098-5.0696
		c6.4993-1.9667,11.9576-5.3082,16.5741-10.5421c13.8044-15.65,26.249-32.3202,38.2975-49.3188
		c1.3837-1.9521,2.0977-5.7799,6.1611-2.6843c1.4741,1.123,2.3455-1.3181,3.1631-2.3485
		c5.4937-6.9235,11.467-13.4148,17.3417-20.0096c11.0217-12.3728,26.0326-16.1364,41.0837-19.9147
		c16.1599-4.0566,32.5396-7.0341,49.0593-9.1602c3.9261-0.5052,5.819-1.5586,6.5684-6.1012
		c5.7705-34.9771,11.1284-70.0331,18.4198-104.7428c0.5732-2.7288-0.2158-4.7043-1.9166-6.8135
		c-7.4252-9.2073-14.6841-18.5485-22.0226-27.8259c-2.1857-2.7634-4.0902-5.6631-5.0319-9.1115
		c-0.6378-2.3348-1.0309-4.7362,1.0211-6.496c2.2742-1.9503,4.7469-0.9358,6.9908,0.2576c3.463,1.8418,5.9083,4.812,8.2888,7.8379
		C1288.7628,1447.907,1294.1992,1454.7596,1300.1296,1462.2604z M1250.464,1321.8027c-0.4852,2.9902,0.5797,5.6133,0.4264,8.2095
		c-0.29,4.9133,2.1624,7.3101,6.3107,9.3929c10.4364,5.24,21.0823,9.9369,32.1577,13.5973
		c14.8462,4.9066,29.757,9.6193,44.6626,14.3435c1.5607,0.4946,3.2181,2.7233,4.7942,0.8376
		c1.3353-1.5975,0.5992-3.792-0.0917-5.7344c-2.4923-7.0077-6.5756-13.0334-11.2111-18.7715
		c-1.6964-2.1-3.5952-3.2084-6.2996-3.4048c-8.6718-0.6302-17.1267-2.527-25.4448-4.9583
		C1280.772,1330.9312,1265.8209,1326.3923,1250.464,1321.8027z M1232.4703,1640.8899
		c-19.0016-3.8359-31.3795,5.2323-43.2898,15.4517c0.207,0.5165,0.4141,1.0328,0.6211,1.5493
		C1203.6144,1652.3873,1217.4271,1646.8838,1232.4703,1640.8899z M1181.0177,1668.0465
		c-10.7061,9.0778-20.4324,17.9006-29.2866,27.7894c8.9844-4.2496,17.6715-8.9485,26.3678-13.6306
		c1.2374-0.6663,1.213-1.7998,1.3568-2.9734C1179.8757,1675.8024,1180.4026,1672.386,1181.0177,1668.0465z"/>
</g>
</svg>
